<svg width="390" height="30" viewBox="0 0 390 30" fill="none" xmlns="http://www.w3.org/2000/svg">
<path d="M19.7535 25.001H16.1216L9.81101 16.8498L3.77979 25.001H0L7.97042 14.9106L0.0657354 5.00098H3.79622L9.79458 12.8235L16.0066 5.00098H19.5727L11.8488 14.8777L19.7535 25.001Z" fill="#B47E48"/>
<path d="M24.5356 16.947V14.334H34.6918V16.947H24.5356Z" fill="#B47E48"/>
<path d="M48.5946 7.64683V25.001H45.7022V7.64683H38.1262V5.00098H56.1542V7.64683H48.5781H48.5946Z" fill="#B47E48"/>
<path d="M77.0913 25.001C75.5137 22.7002 73.3444 19.9887 71.1587 17.6715H66.7544V25.001H63.8621V5.00098H72.2598C74.7577 5.00098 79.6714 6.05274 79.6714 11.213C79.6714 14.8777 77.1735 16.784 74.7413 17.3921C76.4668 19.2327 78.7347 22.01 80.9204 25.001H77.0749H77.0913ZM71.8653 15.0256C73.8045 15.0256 76.664 14.4669 76.664 11.2951C76.664 8.51782 74.3633 7.63039 71.9804 7.63039H66.7544V15.0092H71.8653V15.0256Z" fill="#B47E48"/>
<path d="M103.878 25.001C103.385 23.5219 102.777 21.7471 102.038 19.8243H91.1421C90.3369 21.8621 89.696 23.6698 89.3016 25.001H86.1956C89.2194 15.8638 93.5251 7.15381 94.8398 5.00098H98.258C99.0961 6.31568 103.369 14.319 106.902 25.001H103.878ZM101.002 17.2442C99.5891 13.7109 97.9622 10.079 96.5653 7.61396C95.2999 9.98043 93.6072 13.7109 92.161 17.2442H100.986H101.002Z" fill="#B47E48"/>
<path d="M113.821 25.001V5.00098H116.713V25.001H113.821Z" fill="#B47E48"/>
<path d="M140.624 22.3551V25.001H126.261V5.00098H129.154V22.3551H140.624Z" fill="#B47E48"/>
<g clip-path="url(#clip0_772_8665)">
<path d="M176.625 26.0001C176.603 18.7071 172.936 15.0404 165.624 15C172.917 14.9781 176.584 11.3114 176.625 4C176.646 11.293 180.313 14.9597 187.625 15C180.332 15.022 176.665 18.6886 176.625 26.0001Z" fill="#DFDFDF"/>
</g>
<path d="M262.05 15.0996L263.313 16.041H263.314C263.517 16.1951 263.667 16.3559 263.667 16.5713C263.667 16.7289 263.576 16.8553 263.468 16.9375C263.36 17.0196 263.221 17.0702 263.088 17.0703H263.077L263.066 17.0684L262.414 16.9453C261.004 17.4626 259.443 17.8871 257.79 18.168V20.3828H263.514L264.918 19.041L265.001 18.9619L265.084 19.041L266.395 20.2803C266.481 20.3311 266.542 20.4129 266.581 20.5039C266.622 20.603 266.642 20.7199 266.642 20.8408C266.642 21.0672 266.571 21.2566 266.442 21.3896C266.313 21.5225 266.135 21.5888 265.943 21.5889H257.79V23.6875H265.136L266.692 22.0684L266.774 21.9824L266.861 22.0635L268.467 23.5586C268.637 23.6861 268.716 23.9154 268.716 24.1543C268.716 24.4021 268.628 24.586 268.488 24.7061C268.351 24.8233 268.176 24.8691 268.017 24.8691H257.781V28.0615C257.781 28.5687 257.629 29.0245 257.29 29.3682C256.951 29.7108 256.44 29.9292 255.75 29.9912L255.639 30.001L255.62 29.8926C255.525 29.3623 255.285 29.0241 254.891 28.7773C254.487 28.5248 253.917 28.3647 253.158 28.2119L253.146 28.21L253.135 28.2051C253.045 28.1673 252.973 28.1167 252.924 28.0449C252.875 27.9724 252.86 27.8919 252.86 27.8125C252.86 27.7571 252.862 27.7044 252.868 27.6572C252.874 27.6104 252.885 27.5609 252.91 27.5166C252.936 27.4692 252.974 27.4319 253.026 27.4082C253.075 27.3859 253.128 27.3779 253.182 27.3779H253.265L253.276 27.3799C253.948 27.5046 254.503 27.6076 254.945 27.6787C255.388 27.7501 255.709 27.7881 255.916 27.7881C255.995 27.7881 256.051 27.7883 256.097 27.7793C256.138 27.7713 256.162 27.7572 256.181 27.7354C256.203 27.7105 256.228 27.6632 256.248 27.5693C256.267 27.4755 256.278 27.3443 256.278 27.1611V24.8779H246.073L246.052 24.7822L245.851 23.8418L245.82 23.6953H256.301V21.5967H247.488L247.467 21.501L247.266 20.5361L247.236 20.3906H256.301V18.4004L255.58 18.5078L255.576 18.5088C253.674 18.7263 251.949 18.8232 250.424 18.8232C249.898 18.8232 249.413 18.822 248.953 18.79V18.791C248.688 18.791 248.526 18.56 248.526 18.292C248.526 18.1625 248.556 18.0431 248.617 17.9521C248.678 17.8598 248.774 17.795 248.893 17.7939L249.86 17.7568C252.117 17.6489 254.367 17.3962 256.373 17.001C258.667 16.5486 260.63 15.9108 261.914 15.0947L261.984 15.0498L262.05 15.0996ZM285.546 10.083C286.238 10.0831 286.728 10.2358 287.017 10.5332C287.419 10.8146 287.621 11.5701 287.621 12.8164V13.5244C287.621 14.1912 287.773 14.5769 288.086 14.6816C288.665 14.8103 289.566 14.875 290.789 14.875C291.593 14.875 292.324 14.8184 293 14.7139C293.619 14.5852 293.924 14.4163 293.924 14.1992C294.085 13.0255 294.439 12.1414 294.986 11.5625C294.93 12.1654 294.906 12.6156 294.906 12.9131C294.922 13.4035 295.09 13.7413 295.396 13.9102C295.943 13.9102 296.224 14.2076 296.24 14.8105C296.24 15.4135 296.015 15.7756 295.557 15.9043C295.123 16.2018 294.359 16.4263 293.265 16.5791C292.606 16.6434 291.753 16.6758 290.7 16.6758C289.357 16.6758 288.352 16.6363 287.701 16.5479L288.521 17.5127C288.392 17.8342 288.24 18.1642 288.055 18.5098H293.732C294.005 17.9068 294.366 17.4961 294.825 17.2549C295.717 17.4881 296.473 18.1878 297.092 19.3457C296.69 19.5628 296.328 19.836 295.999 20.1816C294.945 22.1114 293.9 23.575 292.863 24.5801C293.265 24.7731 293.675 24.9581 294.093 25.127C296.168 25.9632 298.387 26.5902 300.751 27.0244C300.446 27.3862 300.084 27.9576 299.69 28.7295C299.69 28.8982 299.488 29.0269 299.086 29.1152C298.138 29.1152 296.899 28.8017 295.372 28.1826C293.731 27.5152 292.332 26.7911 291.167 25.9951C290.274 26.6383 289.277 27.2331 288.167 27.7959C285.747 28.8412 283.544 29.5015 281.558 29.7588C283.777 28.8583 285.554 28.0378 286.88 27.29C288.006 26.6066 289.02 25.8663 289.913 25.0703C288.859 24.2582 287.99 23.3976 287.315 22.4971C286.913 21.9424 286.551 21.396 286.221 20.8574C285.256 21.9669 284.251 22.8276 283.19 23.4307C282.587 23.7763 281.968 24.0414 281.333 24.2344C282.756 22.6263 284.083 20.9057 285.321 19.0645C285.136 18.55 284.999 18.0835 284.911 17.6494L284.918 17.6406C285.152 17.9863 285.393 18.3161 285.626 18.6377C286.117 17.9062 286.583 17.1827 287.017 16.4512C286.961 16.4511 286.92 16.443 286.88 16.4189C286.478 16.2903 286.197 16.0242 286.037 15.6143C285.892 15.3168 285.82 14.7945 285.82 14.0391V12.5918C285.82 11.3937 285.53 10.6211 284.943 10.2754C285.055 10.1468 285.249 10.083 285.546 10.083ZM223.881 1.09375C223.737 2.50886 223.431 4.07677 222.981 5.81348L222.924 6.07031H227.074C227.278 5.64132 227.507 5.29247 227.754 5.02344L227.854 4.9209C228.779 4.94515 229.583 5.50845 230.258 6.62598C229.824 6.88322 229.486 7.23638 229.245 7.68652L228.208 11.5381H229.301C229.558 11.048 229.84 10.6865 230.145 10.4453C231.053 10.4855 231.882 11.0157 232.629 12.0205C232.228 12.2777 231.89 12.5996 231.617 12.9854L230.58 17.2871H231.456C231.689 16.7085 232.011 16.339 232.413 16.1621C233.233 16.2023 233.94 16.7413 234.543 17.7705C234.158 18.0278 233.852 18.3252 233.619 18.6709C233.506 19.6758 233.369 20.6807 233.208 21.6855C233.136 22.4575 232.911 23.6965 232.525 25.4092C232.292 26.5426 232.011 27.5314 231.681 28.3594C231.295 29.2759 230.861 29.743 230.371 29.7432C229.752 29.719 229.413 29.3568 229.357 28.6494C228.826 27.8132 227.966 27.258 226.76 26.9766C226.889 26.8239 227.444 26.7277 228.424 26.6875C228.899 26.6875 229.381 26.7918 229.872 27.0088C230.201 26.7917 230.628 25.32 231.159 22.5781C231.416 21.0586 231.593 19.7637 231.706 18.6943H217.593C216.54 20.3668 215.455 21.7262 214.345 22.7715C213.766 23.3262 213.187 23.744 212.625 24.0254C215.752 19.7478 218.326 14.2323 220.352 7.48633H213.774L213.284 6.07031H220.793C221.324 4.12456 221.823 2.09851 222.297 0L223.881 1.09375ZM333.646 5.04199C333.951 5.1947 334.144 5.43555 334.144 5.68457C334.144 5.966 333.943 6.26419 333.597 6.28027L333.332 6.36816C332.552 8.18534 331.805 9.73758 331.033 11.1045L329.151 14.2246L329.344 14.1924L332.617 13.5088C332.408 12.8817 332.206 12.3752 331.844 11.8848C331.828 11.8607 331.7 11.7076 331.7 11.5469C331.7 11.2897 331.909 11.0725 332.158 11.0723C332.833 11.0723 334.659 14.1761 334.659 15.334C334.659 16.2584 334.273 16.6689 333.895 16.6689C333.461 16.6689 333.027 16.395 333.027 15.792H333.035L332.914 14.8115L331.217 15.3896V28.5693C331.217 29.2103 330.058 29.3158 330.043 29.3164C329.859 29.3164 329.537 29.2202 329.537 28.5693V15.8643L327.172 16.4189V16.8057C327.172 17.1592 326.955 17.376 326.61 17.376C326.377 17.3759 325.959 17.2633 325.798 16.5156L325.307 14.5459L327.848 14.417C329.931 10.9998 331.531 6.44917 331.756 5.45996L331.949 4.26172L333.646 5.04199ZM363.589 0.972656C364.289 0.972656 364.812 1.09351 365.166 1.34277C365.648 1.63232 365.897 2.32414 365.914 3.43359V6.48047H368.848L369.925 4.91309C370.295 5.20256 370.488 5.72476 370.504 6.48047C370.504 7.4051 370.046 7.86323 369.122 7.86328H364.361C364.329 9.41514 364.257 10.9113 364.168 12.3506H366.966C367.224 11.6913 367.553 11.2647 367.963 11.0557C368.824 11.1039 369.563 11.6026 370.174 12.5674C369.788 12.8488 369.475 13.179 369.234 13.5488L369.25 13.5566L369.082 16.877C368.929 18.9836 368.792 20.7773 368.664 22.2568C368.479 23.7764 368.253 25.1193 367.996 26.2852C367.706 27.4509 367.36 28.2707 366.974 28.7451C366.789 29.0346 366.459 29.1797 365.977 29.1797C365.366 29.0992 365.061 28.8016 365.061 28.2871C364.892 27.9253 364.586 27.5951 364.144 27.3057C363.774 27.0646 363.332 26.8958 362.818 26.8154C363.035 26.6307 363.606 26.5342 364.53 26.5342C364.948 26.5744 365.31 26.679 365.608 26.8398C365.905 26.6545 366.235 25.271 366.605 22.6904C366.838 20.801 367.015 18.9035 367.127 16.998C367.224 15.8723 367.28 14.7623 367.296 13.6768H364.088C363.461 21.0984 361.916 26.1319 359.44 28.7773C361.354 23.3257 362.359 16.3543 362.456 7.86328H359.907L359.409 6.48047H363.975V3.43359C363.975 2.21954 363.638 1.45472 362.955 1.125C363.083 1.02073 363.292 0.972659 363.589 0.972656ZM374.717 1.76074C374.717 2.84617 374.573 4.10057 374.276 5.51562C374.195 5.86941 374.123 6.18319 374.05 6.47266H379.751L380.829 4.9043C381.198 5.19376 381.392 5.71684 381.408 6.47266C381.408 7.39725 380.949 7.85538 380.025 7.85547H378.915C378.697 13.3714 377.725 17.891 376.012 21.4209C376.495 22.265 377.034 23.0524 377.645 23.792L377.653 23.8008C378.634 24.9666 379.961 26.0759 381.641 27.1211C381.199 27.3703 380.764 27.7402 380.338 28.2305C380.226 28.4797 380.064 28.6006 379.839 28.6006C379.671 28.5763 379.446 28.4554 379.172 28.2305C378.77 27.9571 378.279 27.5233 377.708 26.9043C376.671 25.7948 375.795 24.5564 375.08 23.1816C373.488 25.7866 371.429 27.7725 368.905 29.1475C371.14 26.7675 372.892 24.1135 374.163 21.1787C373.648 19.7637 373.27 18.3567 373.029 16.9658C372.731 15.2451 372.571 13.4038 372.555 11.458V10.75C371.631 12.4868 370.753 13.6366 369.925 14.1914C371.437 9.51181 372.499 5.09763 373.11 0.932617L374.717 1.76074ZM348.28 10.3242C348.425 10.4529 348.521 10.6946 348.521 10.9277C348.521 11.3216 348.28 11.7391 347.757 11.7393H342.586V17.207H344.886L346.342 15.792L347.757 17.0469C347.982 17.28 348.103 17.5372 348.103 17.7783C348.103 18.2366 347.797 18.5586 347.363 18.5586H342.579V25.7061L343.97 25.9238H344.629C345.747 25.9238 347.443 25.8834 349.357 25.5859L349.381 25.5781C349.631 25.5781 349.784 25.7307 349.784 25.9639C349.784 26.197 349.606 26.3977 349.245 26.5986C348.995 26.6951 348.827 26.9367 348.787 27.2422C348.746 27.6683 348.585 27.9414 348.352 27.9414H348.175C347.564 27.9736 346.993 27.998 346.43 27.998C342.587 27.998 339.218 27.5394 337.063 22.0557C336.757 23.2295 336.307 24.6529 335.543 26.1162C335.519 26.1484 334.056 28.761 333.445 28.7617C333.276 28.7617 333.067 28.6892 333.067 28.3193C333.067 28.2471 333.067 28.1509 333.107 28.0547C334.401 26.334 335.334 24.0255 335.833 21.3398C336.138 19.539 336.299 18.1643 336.339 16.8779L336.307 15.6074L337.931 15.8965C338.349 15.9769 338.607 16.2101 338.607 16.5557C338.607 16.9014 338.446 17.0145 337.971 17.2959L337.489 20.1748C338.373 22.5306 339.532 24.179 340.915 25.0635V11.7393H335.511L335.213 10.4209H345.256L346.816 8.97363L348.28 10.3242ZM217.047 21.332C217.305 21.6538 217.449 22.5544 217.481 24.0254C217.465 24.8214 217.393 25.409 217.264 25.7949C217.152 26.1567 216.998 26.446 216.797 26.6631C216.637 26.9203 216.451 27.1378 216.25 27.3066C215.993 27.4993 215.72 27.5956 215.431 27.5957C214.884 27.5957 214.586 27.266 214.53 26.5986C214.53 26.1243 214.812 25.6498 215.375 25.1514C216.179 24.2749 216.733 22.9964 217.039 21.332H217.047ZM328.5 18.9609C328.829 19.0896 329.006 19.3145 329.006 19.5557C329.006 19.9496 328.74 20.127 328.475 20.127C328.396 20.127 328.356 20.1498 328.347 20.1504C328.066 23.029 326.626 27.3389 325.966 27.3389C325.741 27.3386 325.589 27.17 325.589 26.9209C325.589 26.8485 325.589 26.784 325.629 26.6875C325.983 25.5056 326.257 24.3798 326.458 23.2783L326.94 19.7402V18.5264L328.5 18.9609ZM218.964 21.1719C220.779 21.5346 221.735 22.7489 221.832 24.7979C221.791 25.7626 221.461 26.2532 220.818 26.2773C220.183 26.2773 219.861 25.8189 219.861 24.8945C219.861 23.9699 219.765 23.2779 219.564 22.6748C219.42 22.1233 219.219 21.6201 218.964 21.1719ZM222.681 20.499C224.513 20.8477 225.466 21.9562 225.562 23.833C225.53 24.7573 225.2 25.2237 224.582 25.248C223.962 25.248 223.657 24.7978 223.657 23.8975C223.657 23.1096 223.56 22.4339 223.359 21.8711C223.16 21.3609 222.936 20.9064 222.681 20.499ZM226.117 19.7881C227.062 19.7895 227.815 20.0555 228.376 20.5928C229.036 21.1476 229.398 21.9193 229.47 22.9082C229.47 23.7685 229.188 24.2267 228.625 24.291C228.047 24.291 227.669 23.8488 227.508 22.9727C227.42 22.3535 227.25 21.7822 227.017 21.2676C226.776 20.7772 226.478 20.2865 226.117 19.7881ZM332.311 17.8828C332.994 17.8837 334.248 21.364 334.249 22.8516C334.249 23.342 334.015 24.1219 333.38 24.1221V24.1143H333.316L332.874 23.7852L332.753 23.2217V23.1895C332.778 22.9564 332.777 22.7234 332.777 22.4502C332.777 20.9144 332.488 19.4667 332.005 18.5742C331.957 18.4617 331.933 18.3975 331.933 18.3252C331.933 18.1001 332.118 17.8828 332.311 17.8828ZM286.913 20.1094C287.588 20.9054 288.304 21.6052 289.068 22.2324C289.759 22.7872 290.499 23.2939 291.279 23.7441V23.7354C292.332 22.5133 293.193 21.2274 293.844 19.8848H287.074C287.018 19.9731 286.961 20.0451 286.913 20.1094ZM218.964 21.1719C218.963 21.1716 218.962 21.1711 218.96 21.1709V21.1631C218.962 21.1658 218.963 21.1692 218.964 21.1719ZM222.681 20.499C222.677 20.4982 222.672 20.497 222.667 20.4961L222.675 20.4883C222.677 20.4917 222.679 20.4956 222.681 20.499ZM373.689 7.86328C373.432 8.68344 373.158 9.41585 372.884 10.0752C373.085 12.061 373.383 13.9262 373.769 15.6709C374.05 16.9655 374.437 18.1638 374.935 19.2734C376.189 15.7918 376.872 11.9881 376.985 7.86328H373.689ZM252.331 0.830078H252.33C252.541 0.864627 252.71 0.933275 252.827 1.03906C252.948 1.14888 253.005 1.29097 253.005 1.44727C253.005 1.73797 252.852 1.97195 252.598 2.05664L252.599 2.05762C252.535 2.08306 252.493 2.11137 252.464 2.14062C252.437 2.16932 252.417 2.20424 252.403 2.25C252.378 2.32911 252.373 2.43024 252.372 2.57227H253.84L255.17 0.928711L255.26 0.817383L255.355 0.924805L256.668 2.42285L256.723 2.48535C256.84 2.63746 256.88 2.82928 256.88 3.00684C256.88 3.1702 256.83 3.35266 256.725 3.49707C256.618 3.64452 256.451 3.75488 256.229 3.75488H252.377V5.88574H254.733L256.088 4.24121L256.179 4.12988L256.273 4.23926L257.561 5.73535L257.615 5.7959C257.73 5.93912 257.773 6.10446 257.773 6.28711C257.773 6.46733 257.716 6.65682 257.613 6.80371C257.509 6.9513 257.349 7.06737 257.146 7.06738H254.833L255.055 7.14648L255.063 7.14941L255.227 7.23438C255.38 7.32967 255.49 7.4589 255.49 7.63867C255.49 7.74359 255.469 7.87287 255.414 7.98047C255.356 8.09136 255.251 8.19336 255.087 8.19336C254.927 8.19339 254.842 8.25184 254.822 8.30176L254.818 8.31152L254.813 8.32031L253.991 9.66504H255.086L256.266 8.26855L256.356 8.16211L256.448 8.26562L257.558 9.51172H257.557C257.71 9.66717 257.765 9.85174 257.765 10.0586C257.765 10.239 257.707 10.4282 257.604 10.5752C257.5 10.7227 257.341 10.8388 257.138 10.8389H252.37V13.1943H253.995L255.172 11.7979L255.261 11.6924L255.354 11.7949L256.472 13.042H256.471C256.629 13.1955 256.679 13.4241 256.679 13.6211C256.679 13.8225 256.607 14.0059 256.495 14.1406C256.383 14.2743 256.225 14.3682 256.052 14.3682H252.377V16.6201C252.377 16.7861 252.3 16.9156 252.196 17.0117C252.094 17.1058 251.962 17.1718 251.837 17.2178C251.712 17.2641 251.585 17.2929 251.488 17.3105C251.394 17.3276 251.318 17.3349 251.292 17.335C251.223 17.335 251.156 17.3194 251.096 17.2822C251.037 17.2451 250.991 17.1908 250.958 17.127C250.893 17.0033 250.866 16.831 250.866 16.6201V14.3682H246.893L246.873 14.2734L246.671 13.332L246.64 13.1865H250.858V10.8467H246.202L246.181 10.751L245.98 9.81055L245.949 9.66504H248.81C248.78 8.88453 248.48 7.98616 248.447 7.89453L248.047 7.05957H245.596L245.578 6.96094L245.401 6.02051L245.374 5.87695H250.866V3.74707H246.507L246.487 3.65137L246.286 2.70996L246.254 2.56445H250.866V0.517578L252.331 0.830078ZM220.537 12.9131C219.99 14.2397 219.402 15.4941 218.759 16.668L218.43 17.2793H228.642L229.703 12.9131H220.537ZM283.503 11.5059C283.761 11.8275 283.906 12.7285 283.938 14.208C283.938 14.7867 283.89 15.2209 283.801 15.5264C283.745 15.7595 283.665 15.9689 283.552 16.1377C283.408 16.3708 283.246 16.5631 283.061 16.7158C282.844 16.9088 282.595 17.0058 282.322 17.0059C281.831 17.0059 281.558 16.7083 281.501 16.1055C281.501 15.6793 281.759 15.2526 282.265 14.8184C282.844 14.0304 283.254 12.9208 283.496 11.5137L283.503 11.5059ZM260.841 0.797852L262.281 1.04688H262.28C262.584 1.08363 262.863 1.26106 262.863 1.5752C262.863 1.74508 262.843 1.86762 262.749 2.00488C262.669 2.12103 262.533 2.24761 262.33 2.44043L262.234 4.55078H264.269L264.893 3.60742L264.973 3.48633L265.078 3.58789L266.139 4.61719H266.138C266.304 4.75892 266.425 4.94017 266.425 5.16992C266.425 5.3262 266.363 5.47624 266.27 5.59473C266.183 5.70606 266.062 5.79404 265.927 5.83789C265.786 5.91526 265.709 6.0624 265.709 6.16699V12.4463L265.811 13.3584C265.863 13.5275 266.046 13.6445 266.376 13.6445C266.682 13.6445 266.885 13.5668 267.032 13.3594C267.188 13.1379 267.294 12.7527 267.342 12.1006L267.495 9.94531C267.499 9.71616 267.662 9.51985 267.864 9.51953C267.976 9.51953 268.076 9.5662 268.143 9.65723C268.207 9.74359 268.234 9.8588 268.234 9.98633V12.292L268.357 13.1973L268.665 13.6318C268.846 13.7951 268.917 14.0497 268.917 14.3682C268.917 14.6991 268.73 14.9672 268.481 15.1475C268.232 15.3273 267.909 15.4297 267.607 15.4297H266.49C265.733 15.4297 265.127 15.2971 264.725 14.8818C264.324 14.4675 264.154 13.8013 264.19 12.8086V5.72461H262.12L261.929 7.58594V7.59375L261.927 7.60156L261.362 10.04C262.372 11.1411 263.096 12.0945 263.096 13.1699C263.096 13.2974 263.077 13.4053 263.034 13.4932C262.989 13.5838 262.922 13.6463 262.841 13.6865C262.763 13.7252 262.675 13.7421 262.589 13.75C262.503 13.7579 262.409 13.7568 262.316 13.7568H262.265L262.23 13.7207L261.924 13.4072L261.91 13.3916L261.901 13.3721C261.561 12.6136 261.222 11.9394 260.864 11.3848C260.461 12.2653 259.901 13.1073 259.213 13.8701L259.211 13.873C258.634 14.4746 257.933 15.0501 257.361 15.4746C257.075 15.687 256.819 15.8624 256.626 15.9854C256.531 16.0466 256.449 16.0958 256.386 16.1299C256.355 16.1468 256.326 16.1606 256.302 16.1709C256.29 16.176 256.278 16.1817 256.265 16.1855C256.255 16.1888 256.235 16.1933 256.213 16.1934C256.108 16.1934 256.016 16.1427 255.956 16.0605C255.896 15.9806 255.868 15.875 255.868 15.7598C255.868 15.6136 255.946 15.526 256.001 15.4629L256.011 15.4531L256.022 15.4443C258.297 13.797 259.27 11.7941 259.925 10.0352C259.288 9.31863 258.739 8.82302 258.267 8.59082V8.58984C258.113 8.53326 258.046 8.38851 258.046 8.26562C258.046 8.18335 258.071 8.09565 258.122 8.02539C258.174 7.95278 258.258 7.89567 258.368 7.89551C258.413 7.89551 258.464 7.90881 258.511 7.9248C258.561 7.94173 258.62 7.96621 258.683 7.99609C258.811 8.05603 258.968 8.14218 259.144 8.24902C259.456 8.43814 259.831 8.69609 260.213 8.99414L260.501 7.70801L260.688 5.73242H258.091L258.073 5.63477L257.896 4.69336L257.869 4.55078H260.76L260.829 2.39844L260.701 0.926758L260.687 0.770508L260.841 0.797852ZM296.007 11.5059C296.972 11.5461 297.752 11.8596 298.355 12.4385C298.886 13.0174 299.167 13.7657 299.199 14.6904C299.142 15.4379 298.853 15.8478 298.323 15.9121C297.832 15.9121 297.502 15.5986 297.341 14.9795C297.269 14.0387 297.1 13.339 296.851 12.8887C296.65 12.3501 296.369 11.8917 296.007 11.5059ZM289.148 10.2197C290.097 10.2197 290.861 10.4362 291.44 10.8623C292.091 11.2885 292.461 11.8922 292.534 12.6641C292.534 13.4599 292.276 13.8859 291.769 13.9502C291.223 13.95 290.877 13.5401 290.732 12.7285C290.619 12.238 290.442 11.787 290.185 11.377C289.912 10.9911 289.566 10.6055 289.148 10.2197ZM298.218 4.5752C298.202 4.92086 297.993 5.35509 297.591 5.89355C297.205 6.40811 296.683 6.89058 296.007 7.34082C295.477 7.68651 295.026 7.9273 294.64 8.08008H299.223L300.397 6.63281C301.072 7.25193 301.411 8.40205 301.411 10.0664C301.354 11.3288 300.493 12.3261 298.813 13.0498C299.303 11.8276 299.553 10.6371 299.553 9.4873H282.66C282.587 10.3235 282.434 11.0395 282.193 11.6426C281.879 12.5029 281.421 13.227 280.802 13.8301L279.789 11.417C280.81 10.6049 281.574 9.3911 282.081 7.79102C282.193 7.40507 282.29 7.00254 282.378 6.56836L282.386 6.56055C282.547 6.72939 282.659 7.23615 282.715 8.07227H294.15C295.147 6.51245 295.935 4.91222 296.498 3.28809L298.218 4.5752ZM222.506 7.49414C222.072 8.88497 221.606 10.2357 221.116 11.5381H226.278L227.339 7.49414H222.506ZM330.614 1.30273C330.943 1.46355 331.113 1.68094 331.113 1.94629C331.113 2.19553 330.935 2.54102 330.549 2.54102C330.389 2.54116 330.365 2.621 330.357 2.65332C329.955 3.91557 329.006 5.92568 328.186 7.02734C328.99 8.22523 329.569 9.10198 329.569 9.98633C329.569 10.541 329.304 11.1043 328.805 11.1045C328.371 11.1045 328.066 10.8553 327.945 10.4053L327.953 10.3965C327.599 8.46684 326.698 6.73005 326.023 6.15918C325.902 6.06269 325.822 5.91771 325.822 5.78906C325.822 5.63624 325.975 5.34786 326.28 5.34766C326.344 5.34766 326.481 5.34762 326.61 5.45215L327.406 6.15918L328.169 4.3418L328.877 1.85742L329.159 0.683594L330.614 1.30273ZM342.458 0.71582C343.085 0.804268 343.182 1.18229 343.182 1.39941C343.182 1.74508 343.013 2.00253 342.732 2.08301C342.595 2.12321 342.571 2.26823 342.571 2.34863V4.22949H347.154L348.054 3.01562L349.188 4.61621C349.389 4.78507 349.51 5.04234 349.51 5.33984C349.51 5.83003 349.261 6.11898 348.851 6.11914C348.803 6.11914 348.746 6.11098 348.642 6.08691C348.594 6.07889 348.537 6.06355 348.513 6.06348C348.401 6.06348 348.304 6.1115 348.232 6.21582L346.302 8.93359C346.214 8.9818 346.149 9.02239 346.069 9.02246C345.868 9.02246 345.634 8.79705 345.634 8.51562L345.659 8.33105C346.149 7.42255 346.543 6.46561 346.825 5.54102H336.508L336.372 6.70605C336.187 7.6387 335.648 9.78576 334.506 9.78613C333.895 9.78613 333.831 9.56105 333.622 8.81348L333.614 8.82129V8.76465C333.614 8.53956 333.774 8.26604 334.176 7.83203C334.996 6.82695 335.76 5.56425 335.76 3.26465C335.76 3.01559 335.946 2.82324 336.163 2.82324C336.38 2.82334 336.565 3.01613 336.565 3.24121V4.22949H340.89V0.394531L342.458 0.71582ZM249.405 7.625L249.407 7.62695C249.79 8.1985 250 8.71365 250.06 9.08203L250.063 9.09766L250.061 9.11426L250.002 9.69629H253.025C253.345 8.81175 253.581 7.94815 253.723 7.06738H249.008L249.405 7.625ZM283.858 3.8916C285.023 3.89166 285.876 4.11628 286.422 4.56641C286.881 4.92824 287.114 5.49147 287.13 6.23926C287.13 7.15584 286.8 7.62207 286.149 7.62207C285.586 7.59789 285.264 7.17194 285.192 6.33594C285.063 5.30693 284.621 4.49462 283.858 3.8916ZM288.875 3.7627C289.984 3.7627 290.78 3.94778 291.247 4.30957C291.866 4.71965 292.196 5.34667 292.228 6.20703C292.228 7.06736 291.906 7.49316 291.271 7.49316C290.668 7.49316 290.354 7.01889 290.314 6.07812C290.225 5.21786 289.743 4.45414 288.867 3.7627H288.875ZM216.114 0.586914C217.111 0.908526 217.923 1.38287 218.542 2.00195C219.089 2.51656 219.395 3.1041 219.475 3.77148C219.475 4.73611 219.178 5.22684 218.575 5.25098C218.044 5.25098 217.69 4.83233 217.513 3.99609C217.401 3.48161 217.28 3.03139 217.127 2.64551C216.854 1.85752 216.516 1.16585 216.114 0.586914ZM298.467 2.36328L298.459 2.35547C297.334 2.67709 295.356 2.94208 292.534 3.15918C290.202 3.26371 288.047 3.32031 286.069 3.32031C283.65 3.32031 282.331 3.23217 282.113 3.06348C288.007 2.31569 293.555 1.29409 298.765 0.015625L298.467 2.36328Z" fill="#A2A2A2"/>
<defs>
<clipPath id="clip0_772_8665">
<rect width="15.5564" height="15.5564" fill="white" transform="translate(176.625 4) rotate(45)"/>
</clipPath>
</defs>
</svg>
