<svg width="169" height="30" viewBox="0 0 169 30" fill="none" xmlns="http://www.w3.org/2000/svg">
<g clip-path="url(#clip0_772_8599)">
<path d="M156.609 13.5406C156.851 13.1707 157.164 12.841 157.55 12.5596C156.939 11.5947 156.199 11.0962 155.339 11.0479C154.929 11.257 154.599 11.6832 154.342 12.3425H151.544C151.632 10.9032 151.705 9.40762 151.737 7.85576H156.497C157.422 7.85576 157.88 7.39744 157.88 6.47275C157.864 5.71692 157.671 5.19427 157.301 4.90481L156.224 6.47275H153.289V3.42531C153.273 2.31569 153.023 1.62418 152.541 1.33472C152.187 1.08545 151.664 0.964844 150.965 0.964844C150.667 0.964844 150.458 1.01309 150.33 1.11762C151.013 1.44729 151.351 2.21116 151.351 3.42531V6.47275H146.784L147.282 7.85576H149.831C149.735 16.3468 148.73 23.3181 146.816 28.7697C149.292 26.1243 150.836 21.0908 151.463 13.6692H154.672C154.656 14.7547 154.599 15.8643 154.503 16.99C154.39 18.8957 154.213 20.7933 153.98 22.6829C153.61 25.264 153.281 26.647 152.983 26.8319C152.686 26.6711 152.324 26.5666 151.906 26.5264C150.981 26.5264 150.41 26.6228 150.193 26.8078C150.708 26.8882 151.15 27.057 151.52 27.2983C151.962 27.5877 152.267 27.9174 152.436 28.2792C152.436 28.7938 152.742 29.0914 153.353 29.1718C153.835 29.1718 154.165 29.027 154.35 28.7376C154.736 28.2632 155.082 27.443 155.371 26.2771C155.628 25.1112 155.854 23.7684 156.039 22.2487C156.167 20.7692 156.304 18.9761 156.457 16.8694L156.626 13.5486L156.609 13.5406Z" fill="#070001"/>
<path d="M165.02 23.7846C164.409 23.0449 163.87 22.2569 163.388 21.4126C165.1 17.8827 166.073 13.3638 166.291 7.84788H167.4C168.325 7.84788 168.783 7.38956 168.783 6.46487C168.767 5.70904 168.574 5.1864 168.204 4.89693L167.127 6.46487H161.426C161.498 6.17541 161.571 5.86182 161.651 5.50803C161.949 4.09286 162.093 2.8385 162.093 1.753L160.485 0.924805C159.874 5.08991 158.813 9.50427 157.301 14.184C158.129 13.6292 159.006 12.4793 159.93 10.7425V11.4501C159.946 13.396 160.107 15.2373 160.405 16.958C160.646 18.3491 161.024 19.7562 161.538 21.1714C160.268 24.1063 158.515 26.7597 156.28 29.1398C158.805 27.7648 160.863 25.7787 162.455 23.1735C163.171 24.5485 164.047 25.7868 165.084 26.8964C165.655 27.5155 166.146 27.9497 166.548 28.2231C166.821 28.4483 167.046 28.5689 167.215 28.593C167.44 28.593 167.601 28.4724 167.714 28.2231C168.14 27.7326 168.574 27.3628 169.016 27.1135C167.336 26.0682 166.009 24.9586 165.028 23.7927L165.02 23.7846ZM162.31 19.2657C161.812 18.1561 161.426 16.958 161.144 15.6635C160.758 13.9186 160.461 12.0532 160.26 10.0671C160.533 9.40779 160.807 8.67608 161.064 7.85592H164.361C164.248 11.9808 163.565 15.7841 162.31 19.2657Z" fill="#070001"/>
<path d="M115.875 18.9518L114.315 18.5176V19.7317L113.833 23.2697C113.632 24.3712 113.358 25.4969 113.005 26.6789C112.964 26.7754 112.964 26.8397 112.964 26.9121C112.964 27.1614 113.117 27.3302 113.342 27.3302C114.002 27.3302 115.441 23.0204 115.722 20.1418C115.73 20.1418 115.771 20.1177 115.851 20.1177C116.116 20.1177 116.382 19.9408 116.382 19.5468C116.382 19.3056 116.205 19.0804 115.875 18.9518Z" fill="#070001"/>
<path d="M115.32 10.397C115.441 10.8473 115.746 11.0966 116.18 11.0966C116.679 11.0966 116.944 10.5337 116.944 9.97892C116.944 9.09443 116.365 8.21799 115.561 7.01992C116.381 5.91834 117.33 3.90816 117.732 2.64576C117.74 2.6136 117.764 2.53319 117.925 2.53319C118.311 2.53319 118.488 2.18744 118.488 1.93818C118.488 1.67283 118.319 1.45573 117.99 1.29492L116.534 0.675781L116.253 1.84973L115.545 4.33432L114.781 6.15152L113.985 5.44394C113.857 5.33941 113.72 5.33941 113.656 5.33941C113.35 5.33941 113.197 5.62888 113.197 5.78165C113.197 5.9103 113.278 6.05504 113.398 6.15152C114.074 6.72242 114.974 8.45922 115.328 10.389L115.32 10.397Z" fill="#070001"/>
<path d="M120.997 8.8044C121.206 9.55219 121.27 9.77733 121.882 9.77733C123.023 9.77733 123.562 7.63045 123.747 6.69772L123.884 5.53182H134.2C133.919 6.4565 133.525 7.41335 133.034 8.32195L133.01 8.50689C133.01 8.78832 133.243 9.01346 133.444 9.01346C133.525 9.01346 133.589 8.97325 133.677 8.92501L135.607 6.20724C135.679 6.10271 135.776 6.05446 135.889 6.05446C135.913 6.05446 135.969 6.07055 136.017 6.07859C136.122 6.10271 136.178 6.11075 136.226 6.11075C136.636 6.11075 136.886 5.82128 136.886 5.3308C136.886 5.03329 136.765 4.77599 136.564 4.60713L135.43 3.00702L134.53 4.22118H129.946V2.33964C129.946 2.25923 129.971 2.1145 130.107 2.0743C130.389 1.99389 130.557 1.73659 130.557 1.39083C130.557 1.17373 130.461 0.79582 129.834 0.707372L128.266 0.385742V4.22118H123.94V3.23216C123.94 3.00702 123.755 2.81405 123.538 2.81405C123.321 2.81405 123.136 3.00702 123.136 3.25629C123.136 5.55594 122.372 6.81833 121.552 7.82343C121.15 8.25763 120.989 8.53101 120.989 8.75615V8.81244L120.997 8.8044Z" fill="#070001"/>
<path d="M120.756 24.1146C121.391 24.1146 121.624 23.3347 121.624 22.8442C121.624 21.3566 120.37 17.875 119.686 17.875C119.493 17.875 119.308 18.0921 119.308 18.3172C119.308 18.3896 119.332 18.4539 119.381 18.5665C119.863 19.459 120.153 20.9064 120.153 22.4421C120.153 22.7155 120.153 22.9487 120.128 23.1819V23.2141L120.249 23.7769L120.691 24.1066H120.756V24.1146Z" fill="#070001"/>
<path d="M136.733 25.578C134.819 25.8755 133.122 25.9157 132.005 25.9157H131.345L129.954 25.6986V18.5504H134.739C135.173 18.5504 135.478 18.2288 135.478 17.7704C135.478 17.5292 135.358 17.2719 135.133 17.0387L133.717 15.7844L132.262 17.1995H129.962V11.7318H135.133C135.655 11.7318 135.896 11.3137 135.896 10.9197C135.896 10.6865 135.8 10.4453 135.655 10.3167L134.192 8.96582L132.632 10.4132H122.589L122.887 11.7318H128.29V25.0553C126.907 24.1709 125.749 22.5225 124.865 20.1666L125.347 17.288C125.821 17.0066 125.982 16.894 125.982 16.5482C125.982 16.2025 125.725 15.9693 125.307 15.8889L123.683 15.5994L123.715 16.8699C123.675 18.1564 123.514 19.5314 123.208 21.3325C122.71 24.0181 121.777 26.3258 120.482 28.0465C120.442 28.143 120.442 28.2395 120.442 28.3118C120.442 28.6817 120.651 28.7541 120.82 28.7541C121.431 28.7541 122.895 26.1408 122.919 26.1087C123.683 24.6453 124.133 23.2221 124.438 22.0481C126.593 27.5319 129.962 27.9902 133.806 27.9902C134.369 27.9902 134.94 27.9661 135.551 27.9339H135.728C135.961 27.9339 136.122 27.6605 136.162 27.2344C136.202 26.9288 136.371 26.6876 136.62 26.5911C136.982 26.3901 137.159 26.1891 137.159 25.9559C137.159 25.7227 137.006 25.5699 136.757 25.5699L136.733 25.578Z" fill="#070001"/>
<path d="M120.402 15.7833C120.402 16.3864 120.836 16.6598 121.27 16.6598C121.648 16.6598 122.034 16.2497 122.034 15.325C122.034 14.1672 120.209 11.0634 119.534 11.0634C119.284 11.0634 119.075 11.2805 119.075 11.5378C119.075 11.6987 119.204 11.8514 119.22 11.8756C119.582 12.366 119.783 12.8726 119.992 13.4998L116.719 14.1832L116.526 14.2154L118.408 11.0956C119.18 9.72867 119.928 8.17681 120.708 6.3596L120.973 6.27116C121.319 6.25507 121.52 5.95757 121.52 5.67614C121.52 5.42688 121.327 5.18566 121.021 5.03288L119.325 4.25293L119.132 5.451C118.906 6.44001 117.306 10.9911 115.224 14.4084L112.683 14.537L113.173 16.507C113.334 17.2548 113.752 17.3674 113.985 17.3674C114.331 17.3674 114.548 17.1503 114.548 16.7965C114.548 16.6035 114.548 16.4266 114.548 16.4105L116.912 15.8557V28.5601C116.912 29.2114 117.234 29.3079 117.419 29.3079C117.427 29.3079 118.593 29.2033 118.593 28.5601V15.3813L120.289 14.8024L120.41 15.7833H120.402Z" fill="#070001"/>
<path d="M15.2292 4.91312C16.1538 4.93724 16.9579 5.50009 17.6333 6.61776C17.1991 6.87506 16.8614 7.22885 16.6202 7.67913L15.583 11.5306H16.6765C16.9338 11.0402 17.2152 10.6783 17.5208 10.4371C18.4294 10.4773 19.2576 11.008 20.0054 12.0131C19.6033 12.2704 19.2656 12.592 18.9922 12.978L17.955 17.2798H18.8314C19.0646 16.7008 19.3862 16.331 19.7883 16.1541C20.6084 16.1943 21.316 16.733 21.9191 17.7622C21.5331 18.0195 21.2276 18.317 20.9944 18.6628C20.8818 19.6679 20.7451 20.673 20.5843 21.6781C20.5119 22.45 20.2868 23.6882 19.9008 25.4009C19.6676 26.5347 19.3862 27.5237 19.0566 28.3519C18.6706 29.2685 18.2364 29.7349 17.7459 29.7349C17.1268 29.7108 16.7891 29.3489 16.7328 28.6413C16.2021 27.8051 15.3417 27.2503 14.1356 26.9689C14.2643 26.8161 14.8191 26.7196 15.8001 26.6794C16.2745 26.6794 16.7569 26.7839 17.2474 27.001C17.5771 26.7839 18.0032 25.3125 18.5339 22.5706C18.7912 21.0509 18.9681 19.7563 19.0807 18.6869H4.96918C3.91584 20.3594 2.83034 21.7183 1.72072 22.7636C1.14179 23.3184 0.562852 23.7365 0 24.0179C3.12785 19.7402 5.70088 14.2243 7.72715 7.47812H1.14983L0.659341 6.06295H8.16939C8.70008 4.11709 9.19861 2.09082 9.67301 -0.0078125L11.257 1.08573C11.1123 2.5009 10.8068 4.06884 10.3565 5.80564L10.3002 6.06295H14.4492C14.6824 5.57246 14.9477 5.18651 15.2372 4.90508L15.2292 4.91312ZM4.42241 21.3243C4.67971 21.6459 4.82444 22.5465 4.85661 24.0179C4.84053 24.814 4.76816 25.4009 4.63951 25.7869C4.52694 26.1487 4.37416 26.4382 4.17314 26.6553C4.01233 26.9126 3.82739 27.1297 3.62637 27.2985C3.36907 27.4915 3.09568 27.588 2.80622 27.588C2.25945 27.588 1.96194 27.2583 1.90566 26.591C1.90566 26.1165 2.18708 25.6421 2.74993 25.1436C3.55401 24.2672 4.10882 22.9887 4.41437 21.3243H4.42241ZM3.48968 0.579161C4.48673 0.900791 5.29885 1.37519 5.91798 1.99433C6.46475 2.50894 6.7703 3.09591 6.85071 3.76329C6.85071 4.72818 6.5532 5.21867 5.95015 5.24279C5.41946 5.24279 5.06567 4.82467 4.88877 3.98844C4.7762 3.47383 4.65559 3.02355 4.50281 2.63759C4.22943 1.8496 3.89172 1.15809 3.48968 0.579161ZM7.91209 12.9056C7.36532 14.2323 6.77834 15.4867 6.13508 16.6606L5.80541 17.2717H16.0172L17.0785 12.9056H7.90405H7.91209ZM6.3361 21.1635C8.15331 21.5253 9.11016 22.7394 9.20665 24.7898C9.16644 25.7547 8.83677 26.2452 8.19351 26.2693C7.55829 26.2693 7.23667 25.811 7.23667 24.8863C7.23667 23.9616 7.14018 23.2701 6.93916 22.6671C6.79443 22.1123 6.59341 21.6057 6.3361 21.1554V21.1635ZM9.88207 7.48616C9.44787 8.8772 8.98151 10.228 8.49102 11.5306H13.6532L14.7146 7.48616H9.88207ZM10.0429 20.488C11.8842 20.8338 12.8411 21.9434 12.9375 23.8249C12.9054 24.7496 12.5757 25.216 11.9566 25.2401C11.3374 25.2401 11.0319 24.7898 11.0319 23.8893C11.0319 23.1013 10.9354 22.4258 10.7344 21.863C10.5334 21.3484 10.3082 20.8901 10.0509 20.48L10.0429 20.488ZM13.4843 19.7804C14.4331 19.7804 15.189 20.0458 15.7518 20.5845C16.4111 21.1393 16.773 21.9112 16.8454 22.9003C16.8454 23.7606 16.5639 24.2189 16.0011 24.2833C15.4221 24.2833 15.0442 23.841 14.8834 22.9646C14.795 22.3454 14.6261 21.7746 14.3929 21.2599C14.1517 20.7695 13.8542 20.279 13.4924 19.7804H13.4843Z" fill="#070001"/>
<path d="M38.3542 13.3153V10.7181H33.6745L33.4735 9.77738H36.3118C36.3118 8.9331 35.9581 7.90389 35.9339 7.83956L35.4997 6.93096H33.0714L32.8945 5.99019H38.3622V3.61817H33.98L33.779 2.67741H38.3622V0.65918L39.6809 0.940606C40.083 1.00493 40.2598 1.18987 40.2598 1.43913C40.2598 1.68839 40.1312 1.87333 39.9302 1.93766C39.6246 2.05827 39.6246 2.28341 39.6246 2.68545H41.273L42.6399 0.996891L43.9586 2.50051C44.0872 2.62916 44.1355 2.8141 44.1355 2.99904C44.1355 3.28046 43.9586 3.62621 43.6048 3.62621H39.6327V5.99823H42.1655L43.5566 4.30968L44.8511 5.81329C44.9798 5.94195 45.028 6.09472 45.028 6.27966C45.028 6.59325 44.827 6.939 44.5214 6.939H41.5062L42.3906 7.25259C42.6158 7.34908 42.7444 7.46969 42.7444 7.6305C42.7444 7.81544 42.6721 8.0647 42.463 8.0647C42.2861 8.0647 42.1333 8.12903 42.0851 8.24964L41.1524 9.77738H42.5193L43.7334 8.33809L44.8431 9.5844C44.9717 9.71305 45.02 9.86583 45.02 10.0508C45.02 10.3644 44.8189 10.7101 44.5134 10.7101H39.6246V13.3073H41.4258L42.6399 11.868L43.7576 13.1143C43.8862 13.2349 43.9345 13.4279 43.9345 13.6128C43.9345 13.9586 43.6852 14.24 43.4279 14.24H39.6327V16.612C39.6327 17.1105 38.7241 17.207 38.6678 17.207C38.4668 17.207 38.3622 17.0221 38.3622 16.612V14.24H34.366L34.165 13.2992H38.3703L38.3542 13.3153ZM43.7978 23.8085V21.4686H34.961L34.76 20.5037H43.7978V18.2523L42.9374 18.381C41.0398 18.5981 39.3191 18.6946 37.7994 18.6946C37.2687 18.6946 36.7862 18.6946 36.3279 18.6624C36.151 18.6624 36.0224 18.5096 36.0224 18.2845C36.0224 18.0593 36.1269 17.9066 36.2716 17.9066C41.4338 17.7538 46.7487 16.8452 49.3539 15.1888L50.6163 16.1296C50.8173 16.2823 50.9219 16.411 50.9219 16.5638C50.9219 16.7809 50.6726 16.9417 50.4635 16.9417L49.7801 16.813C48.3408 17.3437 46.7407 17.7779 45.0441 18.0593V20.4957H50.9379L52.3772 19.1207L53.6959 20.367C53.8246 20.4314 53.8969 20.6163 53.8969 20.8334C53.8969 21.2354 53.6477 21.4606 53.318 21.4606H45.0441V23.8004H52.5622L54.1542 22.144L55.7704 23.6477C55.8991 23.7441 55.9715 23.9291 55.9715 24.1462C55.9715 24.5804 55.6659 24.7412 55.3925 24.7412H45.036V28.054C45.036 29.0189 44.4571 29.7425 43.1143 29.8631C42.9133 28.7374 42.0771 28.3917 40.5574 28.0861C40.4046 28.0218 40.3563 27.9334 40.3563 27.8047C40.3563 27.5876 40.3805 27.4911 40.5574 27.4911H40.6297C41.9725 27.7404 42.857 27.9012 43.2912 27.9012C43.5968 27.9012 43.7737 27.9012 43.7737 27.1534V24.7492H33.5458L33.3448 23.8085H43.7737H43.7978ZM36.151 6.939L36.6817 7.68679C37.0596 8.24964 37.2607 8.74816 37.3169 9.09392L37.2446 9.80954H40.485C40.8388 8.84465 41.0961 7.90389 41.2408 6.939H36.151ZM51.7179 5.59619H49.3861L49.1851 7.56618L48.6061 10.0668C49.6434 11.1925 50.351 12.1253 50.351 13.1625C50.351 13.6289 50.0695 13.6289 49.6916 13.6289L49.3861 13.3153C49.0082 12.471 48.6303 11.7232 48.2202 11.1282C47.8181 12.069 47.2312 12.9696 46.4995 13.7817C45.3577 14.9717 43.7174 16.0652 43.5887 16.0652C43.4601 16.0652 43.3636 15.9446 43.3636 15.7516C43.3636 15.6552 43.4118 15.5989 43.4681 15.5345C45.7999 13.846 46.7809 11.7876 47.4402 10.0025C46.7809 9.25473 46.202 8.72404 45.6954 8.47478C45.5909 8.44262 45.5426 8.34613 45.5426 8.25768C45.5426 8.13707 45.615 8.00842 45.7436 8.00842C45.9447 8.00842 46.805 8.50694 47.6654 9.19845L47.995 7.72699L48.1961 5.60423H45.5667L45.3898 4.66347H48.2523L48.3247 2.3799L48.1961 0.908443L49.6353 1.15771C49.9168 1.18987 50.1178 1.34264 50.1178 1.56778C50.1178 1.88137 50.0454 1.9457 49.5871 2.3799L49.4826 4.66347H51.7099L52.3692 3.66642L53.4306 4.69563C53.5834 4.82428 53.6798 4.97706 53.6798 5.16199C53.6798 5.41126 53.4788 5.66052 53.2456 5.72485C53.0687 5.82133 52.9642 6.00627 52.9642 6.15905V12.4389L53.0687 13.3796C53.1411 13.6289 53.3984 13.7575 53.7522 13.7575C54.4115 13.7575 54.7412 13.4118 54.8377 12.1012L54.9905 9.94623C54.9905 9.7613 55.1191 9.63265 55.2397 9.63265C55.3925 9.63265 55.489 9.75326 55.489 9.9784V12.2941L55.6177 13.2349L55.9473 13.7013C56.1001 13.8299 56.1725 14.047 56.1725 14.3606C56.1725 14.9235 55.5373 15.3014 54.9824 15.3014H53.8648C52.3692 15.3014 51.6134 14.7707 51.6857 12.8007V5.59619H51.7179Z" fill="#070001" stroke="#070001" stroke-width="0.241222" stroke-miterlimit="10"/>
<path d="M69.7615 6.55297C69.9223 6.72183 70.0349 7.2284 70.0911 8.06463H81.5251C82.5221 6.50473 83.3101 4.90462 83.873 3.28039L85.5937 4.56691C85.5776 4.91266 85.3685 5.34686 84.9665 5.88559C84.5805 6.4002 84.0579 6.88264 83.3825 7.33293C82.8518 7.67868 82.4015 7.9199 82.0156 8.07267H86.5988L87.7727 6.62534C88.4481 7.24448 88.7859 8.3943 88.7859 10.0587C88.7296 11.3211 87.8692 12.3182 86.1887 13.0419C86.6792 11.8197 86.9284 10.6296 86.9284 9.4798H70.0349C69.9625 10.316 69.8097 11.0317 69.5685 11.6347C69.2549 12.4951 68.7966 13.2187 68.1774 13.8218L67.1643 11.4096C68.1855 10.5975 68.9493 9.38331 69.4559 7.78321C69.5685 7.39725 69.665 6.99521 69.7534 6.56101L69.7615 6.55297ZM72.2943 17.6331C72.5275 17.9789 72.7687 18.3085 73.0019 18.6302C73.4924 17.8985 73.9587 17.1748 74.3929 16.4431C74.3366 16.4431 74.2964 16.435 74.2562 16.4109C73.8542 16.2823 73.5728 16.0169 73.412 15.6068C73.2672 15.3093 73.1949 14.7867 73.1949 14.0309V12.5835C73.1949 11.3855 72.9054 10.6135 72.3184 10.2678C72.431 10.1391 72.624 10.0748 72.9215 10.0748C73.613 10.0748 74.1035 10.2276 74.3929 10.5251C74.795 10.8065 74.996 11.5624 74.996 12.8087V13.5163C74.996 14.1836 75.1488 14.5696 75.4623 14.6741C76.0413 14.8028 76.9418 14.8671 78.164 14.8671C78.9681 14.8671 79.6998 14.8108 80.3752 14.7063C80.9944 14.5776 81.2999 14.4088 81.2999 14.1917C81.4607 13.0177 81.8145 12.1332 82.3613 11.5543C82.305 12.1574 82.2809 12.6076 82.2809 12.9052C82.297 13.3956 82.4658 13.7334 82.7714 13.9022C83.3182 13.9022 83.5996 14.1997 83.6157 14.8028C83.6157 15.4058 83.3905 15.7677 82.9322 15.8963C82.498 16.1938 81.7341 16.419 80.6406 16.5717C79.9812 16.6361 79.1289 16.6682 78.0756 16.6682C76.7328 16.6682 75.7277 16.628 75.0764 16.5396L75.8966 17.5045C75.7679 17.8261 75.6151 18.1558 75.4302 18.5015H81.107C81.3803 17.8985 81.7422 17.4884 82.2005 17.2472C83.093 17.4803 83.8488 18.1799 84.468 19.3377C84.0659 19.5548 83.7041 19.8282 83.3744 20.174C82.3211 22.1038 81.2758 23.5672 80.2386 24.5723C80.6406 24.7652 81.0507 24.9502 81.4688 25.119C83.5433 25.9553 85.7625 26.5825 88.1265 27.0167C87.821 27.3785 87.4591 27.9494 87.0651 28.7213C87.0651 28.8902 86.8641 29.0188 86.4621 29.1073C85.5133 29.1073 84.275 28.7937 82.7473 28.1745C81.107 27.5071 79.7079 26.7835 78.542 25.9874C77.6494 26.6307 76.6524 27.2257 75.5428 27.7886C73.1225 28.8339 70.9193 29.4932 68.9333 29.7505C71.1525 28.8499 72.9295 28.0298 74.2562 27.282C75.3819 26.5985 76.3951 25.8588 77.2876 25.0628C76.2343 24.2506 75.3659 23.3903 74.6904 22.4897C74.2884 21.9349 73.9266 21.3881 73.5969 20.8494C72.632 21.959 71.6269 22.8194 70.5655 23.4224C69.9625 23.7682 69.3433 24.0335 68.7081 24.2265C70.1313 22.6184 71.4581 20.8977 72.6963 19.0563C72.5114 18.5417 72.3747 18.0754 72.2863 17.6412L72.2943 17.6331ZM70.8791 11.498C71.1364 11.8197 71.2812 12.7202 71.3133 14.1997C71.3133 14.7787 71.2651 15.2128 71.1766 15.5184C71.1203 15.7516 71.0399 15.9606 70.9274 16.1295C70.7826 16.3627 70.6218 16.5557 70.4369 16.7084C70.2198 16.9014 69.9705 16.9979 69.6971 16.9979C69.2067 16.9979 68.9333 16.7004 68.877 16.0973C68.877 15.6712 69.1343 15.245 69.6409 14.8108C70.2198 14.0228 70.6299 12.9132 70.8711 11.5061L70.8791 11.498ZM85.8349 2.34767C84.7092 2.6693 82.7312 2.93464 79.9089 3.15174C77.5771 3.25627 75.4221 3.31256 73.4441 3.31256C71.0239 3.31256 69.7052 3.22411 69.4881 3.05525C75.3819 2.30746 80.9301 1.28629 86.1404 0.0078125L85.8429 2.35571L85.8349 2.34767ZM71.2329 3.88345C72.3988 3.88345 73.2511 4.10859 73.7979 4.55887C74.2562 4.9207 74.4894 5.48356 74.5055 6.23134C74.5055 7.14799 74.1758 7.61435 73.5245 7.61435C72.9617 7.59023 72.6401 7.16407 72.5677 6.32783C72.439 5.29862 71.9968 4.4865 71.2329 3.88345ZM78.6545 23.728C79.7079 22.5058 80.5682 21.2193 81.2195 19.8765H74.4492C74.3929 19.9649 74.3366 20.0373 74.2884 20.1016C74.9638 20.8977 75.6795 21.5972 76.4433 22.2244C77.1348 22.7792 77.8746 23.2858 78.6545 23.736V23.728ZM76.2503 3.7548C77.36 3.7548 78.156 3.93973 78.6224 4.30157C79.2415 4.71164 79.5712 5.33882 79.6033 6.19918C79.6033 7.05954 79.2817 7.4857 78.6465 7.4857C78.0434 7.4857 77.7298 7.0113 77.6896 6.07053C77.6012 5.21017 77.1187 4.4463 76.2423 3.7548H76.2503ZM76.5237 10.2115C77.4725 10.2115 78.2364 10.4286 78.8153 10.8548C79.4666 11.2809 79.8365 11.884 79.9089 12.6559C79.9089 13.4519 79.6516 13.8781 79.145 13.9424C78.5982 13.9424 78.2525 13.5323 78.1078 12.7202C77.9952 12.2297 77.8183 11.7795 77.561 11.3694C77.2876 10.9834 76.9418 10.5975 76.5237 10.2115ZM83.3825 11.498C84.3474 11.5382 85.1273 11.8518 85.7304 12.4308C86.2611 13.0097 86.5425 13.7575 86.5747 14.6822C86.5184 15.43 86.2289 15.84 85.6982 15.9044C85.2077 15.9044 84.8781 15.5908 84.7172 14.9716C84.6449 14.0309 84.476 13.3313 84.2268 12.881C84.0257 12.3423 83.7443 11.884 83.3825 11.498Z" fill="#070001"/>
</g>
<defs>
<clipPath id="clip0_772_8599">
<rect width="169.008" height="30" fill="white"/>
</clipPath>
</defs>
</svg>
