<svg width="200" height="104" viewBox="0 0 200 104" fill="none" xmlns="http://www.w3.org/2000/svg">
<g clip-path="url(#clip0_772_8647)">
<path d="M8.83931 95.1373C8.83931 97.6003 5.98495 99.8562 3.61399 101.421H9.04648V102.849H1.28906V101.514C3.45285 99.9483 7.20495 97.2781 7.20495 95.2754C7.20495 94.2165 6.58344 93.3188 4.74192 93.3188C3.77512 93.3188 2.64719 93.6411 1.61133 94.1245V92.5822C2.57813 92.1909 3.7521 91.8916 4.92607 91.8916C7.36609 91.8916 8.83931 93.1346 8.83931 95.1373Z" fill="white"/>
<path d="M36.7613 97.4646C36.7613 100.848 34.8507 103.058 32.0654 103.058C29.2801 103.058 27.3695 100.848 27.3695 97.4646C27.3695 94.0808 29.142 91.917 32.0654 91.917C34.9888 91.917 36.7613 94.1498 36.7613 97.4646ZM28.8888 97.4646C28.8888 100.25 30.5001 101.608 32.0654 101.608C33.4926 101.608 35.242 100.273 35.242 97.4646C35.242 94.6563 33.6767 93.3212 32.0194 93.3212C30.4771 93.3212 28.8888 94.5412 28.8888 97.4646Z" fill="white"/>
<path d="M62.6118 95.1373C62.6118 97.6003 59.7575 99.8562 57.3865 101.421H62.819V102.849H55.0846V101.514C57.2484 99.9483 61.0005 97.2781 61.0005 95.2754C61.0005 94.2165 60.379 93.3188 58.5374 93.3188C57.5707 93.3188 56.4427 93.6411 55.4069 94.1245V92.5822C56.3737 92.1909 57.5476 91.8916 58.7216 91.8916C61.1616 91.8916 62.6348 93.1346 62.6348 95.1373H62.6118Z" fill="white"/>
<path d="M88.2319 93.3897C86.2753 93.6429 83.9734 94.6787 83.1447 96.4282C83.49 96.0599 84.6179 95.5765 85.4926 95.5765C87.9787 95.5765 89.4059 97.2108 89.4059 99.1905C89.4059 101.17 87.8866 103.058 85.2394 103.058C82.8454 103.058 81.165 101.469 81.165 98.8221C81.165 94.9319 84.2956 92.5379 88.2319 91.9395V93.3897ZM82.7303 99.2365C82.7303 100.572 83.6051 101.607 85.2394 101.607C86.7356 101.607 87.7945 100.664 87.7945 99.2365C87.7945 97.6942 86.6206 96.9116 85.2854 96.9116C83.7892 96.9116 82.7303 97.8553 82.7303 99.2365Z" fill="white"/>
<path d="M112.448 99.9956C112.057 100.985 111.366 102.09 110.745 102.804C110.537 102.689 110.123 102.413 109.893 102.297C110.537 101.63 111.113 100.686 111.458 99.7654L112.471 99.9956H112.448ZM114.474 99.0057V103.886H113.277V99.0057H109.985V98.108H113.277V96.6348H109.893V95.7601H114.451C114.773 95.1155 115.141 94.1948 115.348 93.5502L116.476 93.7574C116.177 94.425 115.855 95.1846 115.556 95.7831H117.65V96.6578H114.474V98.131H117.466V99.0288H114.474V99.0057ZM117.397 93.4351H110.146V92.5604H113.392C113.185 92.1461 112.885 91.6627 112.655 91.2714L113.852 90.9951C114.197 91.4785 114.566 92.077 114.796 92.5374H117.397V93.4121V93.4351ZM111.873 95.691C111.78 95.1616 111.527 94.3559 111.251 93.7344L112.218 93.5272C112.54 94.1257 112.839 94.9084 112.885 95.4378L111.85 95.668L111.873 95.691ZM116.062 99.6503C116.591 100.341 117.167 101.262 117.443 101.86L116.568 102.274C116.292 101.676 115.717 100.709 115.21 100.019L116.062 99.6273V99.6503ZM124.855 96.7729H123.06V103.863H121.863V96.7729H119.607V97.2563C119.607 99.259 119.4 102.021 117.881 103.84C117.673 103.633 117.213 103.31 116.937 103.218C118.318 101.538 118.456 99.1208 118.456 97.2563V92.4223C120.298 92.1691 122.415 91.7547 123.589 91.3174L124.556 92.1C123.198 92.5374 121.31 92.8827 119.584 93.1129V95.7831H124.832V96.7729H124.855Z" fill="white"/>
<path d="M156.76 97.0247V99.1194H160.673V100.086H156.76V102.342C156.76 102.779 156.852 102.872 157.427 102.872H159.315C159.821 102.872 159.913 102.595 159.982 101.076C160.259 101.26 160.765 101.444 161.087 101.513C160.972 103.309 160.627 103.792 159.407 103.792H157.243C155.862 103.792 155.494 103.493 155.494 102.319V100.063H152.524C152.271 101.559 151.281 103.01 148.036 103.953C147.897 103.723 147.506 103.332 147.253 103.125C150.015 102.342 150.959 101.237 151.258 100.063H147.598V99.0964H151.396V97.0017H149.67V96.4723C148.864 96.9787 148.036 97.393 147.207 97.7153C147.046 97.4851 146.677 97.1168 146.447 96.9326C147.598 96.5413 148.772 95.8968 149.808 95.1141C149.302 94.6537 148.496 94.0783 147.828 93.6409L148.588 93.0885C149.256 93.5028 150.061 94.0553 150.591 94.4696C151.189 93.8941 151.719 93.2726 152.133 92.6051H148.036V91.6843H152.754L152.962 91.6383L153.767 91.9835C153.054 93.6179 151.811 94.999 150.337 96.0579H158.118C156.507 94.8379 155.264 93.2266 154.435 91.4081L155.494 91.1318C155.77 91.7533 156.115 92.3518 156.53 92.9043C157.266 92.3749 158.049 91.7303 158.555 91.2239L159.476 91.7764C158.739 92.3979 157.842 93.0654 157.036 93.5488C157.358 93.9171 157.727 94.2854 158.118 94.6307C158.947 94.1013 159.913 93.3417 160.489 92.8122L161.41 93.3647C160.65 93.9862 159.66 94.6537 158.808 95.1832C159.729 95.8738 160.765 96.4262 161.893 96.8175C161.617 97.0247 161.225 97.416 161.041 97.6923C160.19 97.393 159.407 96.9557 158.67 96.4723V97.0017H156.76V97.0247ZM155.494 97.0247H152.616V99.1194H155.494V97.0247Z" fill="white"/>
<path d="M189.378 98.5675C189.101 101.422 188.227 103.079 184.129 103.931C184.037 103.655 183.692 103.263 183.439 103.056C187.237 102.366 187.881 101.008 188.112 98.5675H189.378ZM190.252 93.4573H183.784V92.4905H190.252V91.1094H191.518V92.4905H198.125V93.4573H191.518V94.8385H196.652V95.7592H185.349V94.8385H190.275V93.4573H190.252ZM196.421 99.5804V97.8539H185.418V99.5804H184.221V96.8871H197.664V99.5804H196.421ZM196.329 102.711C196.951 102.711 197.043 102.481 197.089 100.892C197.365 101.054 197.872 101.215 198.217 101.307C198.079 103.194 197.734 103.678 196.444 103.678H194.027C192.531 103.678 192.163 103.379 192.163 102.297V98.5675H193.383V102.274C193.383 102.665 193.498 102.734 194.143 102.734H196.329V102.711Z" fill="white"/>
<path d="M12.5913 43.4837V45.3712C10.8188 44.8188 9.64483 44.5426 8.24067 44.5426C6.44518 44.5426 4.6497 44.9799 4.6497 46.4992C4.6497 47.512 5.5014 48.0875 6.65236 48.3867L10.1282 49.3766C11.8086 49.8369 13.1898 50.8728 13.1898 52.9445C13.1898 55.4996 11.072 56.9268 7.38896 56.9268C5.59348 56.9268 4.0512 56.5815 2.46289 56.006V54.0034C4.0512 54.5328 5.57046 55.1083 7.38896 55.1083C9.69087 55.1083 11.1641 54.2796 11.1641 53.0136C11.1641 51.9086 10.3124 51.3332 9.11539 51.0109L5.89273 50.1362C4.14328 49.6758 2.64704 48.686 2.64704 46.4992C2.64704 43.829 5.20216 42.7471 8.24067 42.7471C9.94408 42.7471 11.3022 43.0463 12.5913 43.4607V43.4837Z" fill="white"/>
<path d="M48.57 56.6967C48.2248 55.6839 47.8104 54.4639 47.304 53.1518H39.8458C39.2934 54.533 38.856 55.776 38.5798 56.6967H36.462C38.5337 50.4586 41.4572 44.4967 42.3779 43.0234H44.7029C45.2783 43.9212 48.2017 49.3997 50.6187 56.6967H48.547H48.57ZM46.6134 51.4024C45.6466 48.9854 44.5417 46.4993 43.5749 44.8189C42.7232 46.4303 41.5492 48.9854 40.5594 51.4024H46.5904H46.6134Z" fill="white"/>
<path d="M74.6967 56.6967V43.0234H76.6763V56.6967H74.6967ZM86.7816 43.0234C83.7431 45.5325 81.3492 47.7423 79.5076 49.8371C81.8786 51.9088 84.4337 54.2337 86.7816 56.6967H83.9963C81.8095 54.4179 79.4156 52.208 76.8374 49.9982C78.8171 47.6733 81.0499 45.3484 83.7431 43.0234H86.7816Z" fill="white"/>
<path d="M122.461 50.8269C122.461 54.0956 121.126 56.95 116.499 56.95C111.872 56.95 110.606 54.0956 110.606 50.8269V43.0234H112.586V50.8499C112.586 53.6582 113.921 55.1084 116.499 55.1084C119.077 55.1084 120.481 53.6582 120.481 50.8499V43.0234H122.461V50.8269Z" fill="white"/>
<path d="M157.358 56.6967C156.276 55.1084 154.803 53.2669 153.307 51.6786H150.291V56.6967H148.312V43.0234H154.043C155.747 43.0234 159.107 43.737 159.107 47.282C159.107 49.791 157.404 51.0801 155.747 51.5175C156.921 52.7835 158.486 54.6711 159.982 56.7198H157.358V56.6967ZM153.79 49.8831C155.125 49.8831 157.082 49.5148 157.082 47.328C157.082 45.4404 155.493 44.8189 153.882 44.8189H150.314V49.8601H153.813L153.79 49.8831Z" fill="white"/>
<path d="M194.994 56.6967C194.649 55.6839 194.235 54.4639 193.728 53.1518H186.27C185.717 54.533 185.28 55.776 185.004 56.6967H182.886C184.958 50.4586 187.881 44.4967 188.802 43.0234H191.127C191.702 43.9212 194.626 49.3997 197.043 56.6967H194.971H194.994ZM193.038 51.4024C192.071 48.9854 190.966 46.4993 189.999 44.8189C189.147 46.4303 187.973 48.9854 186.984 51.4024H193.014H193.038Z" fill="white"/>
<path d="M0 74.4209H199.506" stroke="white" stroke-width="1.15095" stroke-miterlimit="10"/>
<path d="M30.6154 28.0142H25.5282L16.6889 16.5967L8.24091 28.0142H2.94653L14.1108 13.8805L3.03861 0H8.26393L16.6659 10.9571L25.3671 0H30.3622L19.5433 13.8344L30.6154 28.0142Z" fill="white"/>
<path d="M37.291 16.7342V13.0742H51.5168V16.7342H37.291Z" fill="white"/>
<path d="M71.0137 3.70606V28.0142H66.9624V3.70606H56.3506V0H81.6025V3.70606H70.9907H71.0137Z" fill="white"/>
<path d="M110.929 28.0142C108.719 24.7915 105.68 20.9934 102.619 17.7477H96.4498V28.0142H92.3984V0H104.161C107.66 0 114.543 1.47322 114.543 8.70119C114.543 13.8344 111.044 16.5046 107.637 17.3564C110.054 19.9345 113.231 23.8247 116.292 28.0142H110.906H110.929ZM103.609 14.0416C106.325 14.0416 110.33 13.259 110.33 8.81629C110.33 4.92607 107.108 3.68305 103.77 3.68305H96.4498V14.0186H103.609V14.0416Z" fill="white"/>
<path d="M148.427 28.0142C147.736 25.9425 146.884 23.4564 145.849 20.7632H130.587C129.459 23.6175 128.561 26.1496 128.009 28.0142H123.658C127.894 15.2156 133.925 3.01549 135.766 0H140.554C141.728 1.84152 147.713 13.0518 152.662 28.0142H148.427ZM144.421 17.1492C142.442 12.2001 140.163 7.11288 138.206 3.66003C136.434 6.97477 134.063 12.2001 132.037 17.1492H144.398H144.421Z" fill="white"/>
<path d="M162.353 28.0142V0H166.405V28.0142H162.353Z" fill="white"/>
<path d="M199.92 24.3081V28.0142H179.802V0H183.853V24.3081H199.92Z" fill="white"/>
</g>
<defs>
<clipPath id="clip0_772_8647">
<rect width="199.92" height="104" fill="white"/>
</clipPath>
</defs>
</svg>
