<svg width="282" height="15" viewBox="0 0 282 15" fill="none" xmlns="http://www.w3.org/2000/svg">
<g clip-path="url(#clip0_774_15051)">
<path d="M1.62593 0.136665L2.33631 0.587485C2.33631 0.997321 2.28166 1.47546 2.17238 2.02191C2.0221 2.73229 1.81718 3.34705 1.58494 3.83885C1.32538 4.34432 1.07948 4.72683 0.833578 4.98639C1.31172 4.91809 1.80352 4.82246 2.268 4.71317C2.54123 3.90716 2.78713 3.08749 3.01937 2.25415L3.62046 2.75962C3.62046 3.31973 3.45653 4.04377 3.15598 4.90442C2.88276 5.73776 2.50024 6.50279 2.0221 7.22683C1.70789 7.69131 1.42101 8.06016 1.16145 8.30606C1.78986 8.14213 2.40462 7.96453 3.03303 7.74595C2.95106 7.26781 2.85544 6.78967 2.74615 6.31153C3.00571 6.54377 3.30626 6.93994 3.64779 7.47273C3.88003 7.88257 3.98932 8.26508 4.01664 8.63393C4.01664 9.04377 3.89369 9.26235 3.64779 9.30333C3.40188 9.30333 3.23795 9.09841 3.16964 8.67492L3.10134 8.12847C2.97839 8.25142 2.82811 8.38803 2.67784 8.52464C2.28167 8.83885 1.85817 9.08475 1.44833 9.26235C1.0385 9.43994 0.669643 9.54923 0.328113 9.60388L0.0685502 8.59295C0.314452 8.5383 0.546692 8.47 0.75161 8.40169C1.21609 7.41809 1.63959 6.43448 2.00844 5.43721C1.73522 5.62847 1.46199 5.77874 1.18877 5.87437C0.8609 6.01098 0.560353 6.09295 0.273468 6.13393L0.000244141 5.123L0.51937 5.02738C1.05216 3.31973 1.40735 1.69404 1.62593 0.136665ZM0.123195 10.847C0.437403 10.9563 0.737949 11.2296 1.02483 11.694C1.36636 12.2405 1.57128 12.8416 1.62593 13.4973C1.62593 13.9481 1.48932 14.1804 1.22975 14.194C1.01117 14.194 0.8609 14.0438 0.778933 13.7296C0.75161 13.552 0.724288 13.2924 0.696965 12.9509C0.655982 12.5001 0.587676 12.0902 0.505709 11.7487C0.41008 11.4072 0.287129 11.1066 0.136856 10.8334L0.123195 10.847ZM1.32538 10.2596C1.65325 10.3552 1.9538 10.6148 2.24068 11.0383C2.58221 11.5438 2.78713 12.0902 2.85544 12.705C2.85544 13.1011 2.73248 13.3061 2.48658 13.3334C2.28167 13.3334 2.14505 13.1968 2.09041 12.9236C2.06309 12.7596 2.0221 12.5274 1.99478 12.1995C1.94013 11.776 1.87183 11.4072 1.76254 11.1203C1.65325 10.8061 1.50298 10.5192 1.31172 10.2733L1.32538 10.2596ZM2.52757 9.71317C2.85544 9.79514 3.1833 10.0274 3.48385 10.4099C3.83904 10.8607 4.05762 11.3525 4.12593 11.9126C4.12593 12.3225 4.00298 12.5274 3.74341 12.541C3.5385 12.541 3.40188 12.4044 3.34724 12.1312C3.31992 11.9809 3.27893 11.7623 3.23795 11.4755C3.1833 11.0929 3.115 10.7651 2.99205 10.4919C2.8691 10.205 2.71882 9.94541 2.51391 9.72683L2.52757 9.71317ZM6.46199 0.0683594L7.07675 0.833387C7.04942 0.956338 7.00844 1.07929 6.98112 1.18858C7.21336 1.81699 7.43194 2.34978 7.66418 2.78694C7.8691 3.27874 8.16964 3.75688 8.5385 4.22136C8.92101 4.68585 9.30352 5.04104 9.65871 5.27328C9.49478 5.4782 9.33084 5.75142 9.16691 6.10661C9.16691 6.18858 9.07128 6.22956 8.89369 6.22956C8.82538 6.20224 8.74341 6.16126 8.67511 6.06563C8.55216 5.92902 8.38822 5.69677 8.21063 5.36891C7.92374 4.86344 7.67784 4.24869 7.4456 3.55197C7.1997 2.70497 7.0221 1.98093 6.92647 1.3935C6.80352 1.85798 6.62593 2.33612 6.43467 2.82792C6.06582 3.77055 5.66964 4.56289 5.20516 5.20497C4.61773 6.07929 4.09861 6.59841 3.64779 6.74869C4.74068 4.84978 5.66964 2.623 6.46199 0.0683594ZM4.64505 14.2214V7.69131C5.1915 7.69131 5.47839 7.82792 5.47839 8.08749H7.54123C7.65052 7.78694 7.77347 7.58202 7.92374 7.45907C8.34724 7.45907 8.70243 7.74595 9.00298 8.30606C8.79806 8.48366 8.66145 8.67492 8.56582 8.87983V14.0301C8.56582 14.4536 8.42921 14.6722 8.14232 14.6858C7.84177 14.6858 7.67784 14.4536 7.67784 14.0164H5.49205V14.2077C5.49205 14.5902 5.35544 14.7815 5.06855 14.7951C4.78166 14.7951 4.64505 14.6039 4.64505 14.2214ZM5.05489 5.66945H7.32265L7.80079 4.84978C7.96473 5.00005 8.04669 5.27328 8.06035 5.66945C8.06035 6.13393 7.85544 6.36617 7.45926 6.36617H5.28713L5.06855 5.66945H5.05489ZM5.49205 13.3061H7.67784V8.77055H5.49205V13.3061Z" fill="#6A6A6A"/>
<path d="M23.0469 4.04376C23.648 4.04376 24.0715 4.16671 24.3174 4.39895C24.6589 4.67217 24.8365 5.09567 24.8502 5.6831C24.8502 6.12026 24.6999 6.33884 24.413 6.33884C24.1398 6.33884 23.9895 6.09294 23.9758 5.6148C23.9212 5.04103 23.607 4.5219 23.0469 4.04376ZM26.066 4.82245C25.5196 7.11753 25.1644 8.71589 25.0004 9.57655C24.9594 9.79513 24.9458 10.0137 24.9458 10.2596C24.9458 10.6831 24.9458 11.1612 24.9731 11.694C25.0277 12.5683 25.0551 13.3334 25.0687 14.0164C25.0687 14.4673 24.9321 14.6995 24.6452 14.6995C24.3447 14.6995 24.1944 14.4673 24.1944 14.0164C24.1944 13.47 24.2354 12.4454 24.331 10.9427C24.331 10.4645 24.2491 10.1093 24.0988 9.89075C23.8665 9.48092 23.5523 9.19403 23.1425 9.0301C23.1971 8.97545 23.2791 8.94813 23.4021 8.94813C23.7709 8.94813 24.0578 9.05742 24.29 9.23502C24.5359 8.52463 24.7955 7.78693 25.0824 7.04922C25.5879 5.69676 25.9157 4.9454 26.0933 4.80879L26.066 4.82245ZM23.5933 0.163977C24.29 0.163977 24.8092 0.341573 25.137 0.696764C25.4103 0.956327 25.5469 1.37982 25.5605 1.95359C25.5605 2.41808 25.4103 2.65032 25.1097 2.65032C24.8638 2.65032 24.7135 2.41808 24.6862 1.99458C24.5769 1.21589 24.2081 0.601136 23.5797 0.163977H23.5933ZM25.8474 2.04922H27.3502V1.39349C27.3502 0.751409 27.2135 0.355234 26.9267 0.177638C26.9813 0.122994 27.0769 0.0956711 27.2135 0.0956711C27.5414 0.0956711 27.7736 0.163977 27.8966 0.300589C28.0879 0.464524 28.1835 0.87436 28.1835 1.5301V2.03556H30.2736V1.3525C30.2736 0.710425 30.137 0.31425 29.8638 0.136655C29.9185 0.0820099 30.0004 0.0546875 30.137 0.0546875C30.4649 0.0546875 30.6971 0.122994 30.8338 0.259606C31.025 0.409879 31.107 0.819715 31.107 1.47545V2.03556H31.995L32.4731 1.21589C32.637 1.36616 32.719 1.63939 32.7327 2.03556C32.7327 2.50004 32.5277 2.73228 32.1316 2.73228H31.1206V4.87709C31.1206 5.28693 30.984 5.49185 30.7245 5.51917C30.4239 5.51917 30.2736 5.30059 30.2736 4.87709L29.6043 4.86343V6.14758H31.2163C31.3256 5.83338 31.4485 5.6148 31.5988 5.49185C32.0223 5.49185 32.3775 5.79239 32.678 6.3525C32.4731 6.5301 32.3365 6.73502 32.2409 6.93993V13.9345C32.2409 14.4536 32.0906 14.7132 31.7764 14.7132C31.5305 14.7132 31.3665 14.5629 31.3119 14.2487C31.025 13.7842 30.6562 13.5246 30.1917 13.4563C30.2463 13.3334 30.4922 13.2787 30.9021 13.2787C31.0933 13.2787 31.2573 13.3061 31.3802 13.3744V11.9809C31.2846 12.0356 31.2026 12.1039 31.1206 12.1722C31.066 12.2268 30.9977 12.2541 30.9294 12.2541C30.9157 12.2541 30.8747 12.1449 30.8338 11.9399C30.7655 11.6667 30.7108 11.3252 30.6698 10.929C30.6425 10.6148 30.6152 10.2733 30.5879 9.90441C30.5879 9.84977 30.5879 9.79513 30.5879 9.74048L30.4103 10.5055C30.137 11.3525 29.8638 11.9536 29.6179 12.3088V14.0847C29.6179 14.4536 29.4813 14.6585 29.2081 14.6858C28.9349 14.6585 28.7982 14.4673 28.7982 14.0847V12.1585C28.689 12.2132 28.607 12.2815 28.525 12.3634C28.4704 12.4181 28.4021 12.4454 28.3338 12.4454C28.3201 12.4454 28.2928 12.3224 28.2518 12.0902C28.1971 11.7897 28.1425 11.4345 28.1015 11.0246C28.0742 10.6831 28.0469 10.3143 28.0196 9.91808C28.0196 9.84977 28.0196 9.78146 28.0196 9.71316C27.9649 10 27.8966 10.2869 27.8146 10.5738C27.5277 11.5164 27.2409 12.1858 26.9676 12.5683V14.194C26.9676 14.5629 26.831 14.7678 26.5715 14.7951C26.2846 14.7678 26.1343 14.5765 26.1206 14.194V5.6148C26.6808 5.6148 26.9676 5.76507 26.9676 6.06562V6.13392H28.8256V4.84977H28.2245V4.93174C28.2245 5.34157 28.0879 5.54649 27.8146 5.57381C27.5277 5.57381 27.3775 5.35523 27.3775 4.9454V2.71862H26.0933L25.8747 2.0219L25.8474 2.04922ZM26.9403 12.1995C27.2272 11.1612 27.4868 9.97272 27.719 8.64758H27.2409L27.0223 7.95086H27.7736C27.8693 7.74594 27.9922 7.60933 28.1562 7.55469C28.3884 7.60933 28.5933 7.84157 28.7709 8.27873C28.566 8.41534 28.4294 8.55196 28.3611 8.68857C28.3884 9.24868 28.4157 9.6995 28.4704 10.041C28.525 10.4235 28.5797 10.7651 28.648 11.052C28.7026 11.2159 28.7436 11.3662 28.7982 11.5028V6.80332H26.9403V12.1995ZM28.1835 4.16671H30.2736V2.74594H28.1835V4.16671ZM29.6179 11.9673C29.8775 11.011 30.1097 9.93174 30.3146 8.72955H29.9185L29.6999 8.03283H30.3829C30.4786 7.82791 30.6015 7.6913 30.7518 7.63665C30.984 7.6913 31.1889 7.92354 31.3665 8.3607C31.1616 8.49731 31.025 8.63392 30.9567 8.77053C30.984 9.28966 31.0114 9.71316 31.066 10.0137C31.1206 10.3826 31.1753 10.6968 31.2573 10.9563L31.3939 11.3115V6.81698H29.6179V11.9809V11.9673Z" fill="#6A6A6A"/>
<path d="M47.6234 0.67045V0.766079H49.6179C49.7272 0.43821 49.8501 0.205969 49.9867 0.0966797C50.4102 0.0966797 50.7654 0.397226 51.066 0.957335C50.8611 1.16225 50.7244 1.36717 50.6288 1.58575V5.26061C50.6288 5.68411 50.4922 5.90269 50.2053 5.91635C49.9731 5.91635 49.8228 5.76608 49.7682 5.50652H47.6097V14.1814C47.6097 14.5502 47.4731 14.7551 47.2135 14.7825C46.9266 14.7551 46.7764 14.5639 46.7627 14.1814V0.219631C47.3228 0.219631 47.6097 0.369904 47.6097 0.67045H47.6234ZM47.6234 2.85624H49.7545V1.44914H47.6234V2.85624ZM47.6234 4.79613H49.7545V3.56662H47.6234V4.79613ZM48.2518 6.77701H53.2108L53.6889 5.95734C53.8529 6.10761 53.9348 6.38083 53.9485 6.77701C53.9485 7.24149 53.7436 7.47373 53.3474 7.47373H52.555V9.53657H53.525L54.0031 8.7169C54.1671 8.86717 54.249 9.1404 54.2627 9.53657C54.2627 10.0011 54.0578 10.2333 53.6616 10.2333H52.5687V13.7169C52.5687 14.0858 52.4321 14.2907 52.1725 14.318C51.8993 14.2907 51.7627 14.0994 51.749 13.7169V10.2333H50.4649C50.2736 12.2415 49.5496 13.5803 48.3064 14.236C49.0714 13.1841 49.5223 11.8453 49.6452 10.2333H48.1698L47.9512 9.53657H49.6862C49.6862 9.41362 49.6862 9.30433 49.6862 9.19504V7.47373H48.4977L48.2791 6.77701H48.2518ZM51.7217 9.53657V7.47373H50.4922V9.19504C50.4922 9.31799 50.4922 9.44094 50.4922 9.53657H51.7354H51.7217ZM51.5441 5.35624V0.246953C52.1042 0.246953 52.3911 0.397226 52.3911 0.697773V0.766079H54.4813C54.5906 0.465532 54.7135 0.260614 54.8501 0.164986C55.2736 0.164986 55.6288 0.451871 55.9294 0.984658C55.7244 1.16225 55.5742 1.35351 55.4785 1.54477V14.0174C55.4785 14.5229 55.3283 14.7688 55.0277 14.7688C54.7818 14.7688 54.6315 14.6185 54.5632 14.318C54.2627 13.8808 53.8665 13.6213 53.3747 13.553C53.4294 13.43 53.6753 13.3754 54.0851 13.3754C54.3173 13.3754 54.4949 13.4027 54.6316 13.4573V5.52018H52.3501C52.3228 5.7934 52.1862 5.94367 51.9403 5.95734C51.6534 5.95734 51.5168 5.76608 51.5168 5.38356L51.5441 5.35624ZM52.3911 2.8016H54.6589V1.40816H52.3911V2.8016ZM52.3911 4.79613H54.6589V3.49832H52.3911V4.79613Z" fill="#6A6A6A"/>
<path d="M69.823 13.0875V2.24048C70.3831 2.24048 70.67 2.39075 70.67 2.6913H70.9705C71.2164 1.776 71.394 0.915343 71.5033 0.109332L72.2957 0.587474C72.2957 0.806054 72.2547 1.03829 72.1727 1.31152C72.0634 1.66671 71.9132 1.96726 71.7356 2.22682C71.5853 2.4454 71.435 2.59567 71.2984 2.70496H72.4186C72.5279 2.40441 72.6509 2.1995 72.8011 2.07655C73.2246 2.07655 73.5798 2.36343 73.8804 2.92354C73.6755 3.10114 73.5388 3.29239 73.4432 3.49731V12.8416C73.4432 13.2651 73.3066 13.4836 73.0197 13.4973C72.7192 13.4973 72.5552 13.2787 72.5552 12.8552H70.67V13.0738C70.67 13.4563 70.5334 13.6476 70.2465 13.6612C69.9596 13.6612 69.823 13.47 69.823 13.0875ZM70.67 7.21316H72.5552V3.3607H70.67V7.21316ZM70.67 12.1449H72.5552V7.92354H70.67V12.1449ZM75.1099 0.0546875L75.9159 0.53283C75.8476 1.1066 75.7383 1.72135 75.5744 2.34977C75.5607 2.43174 75.5334 2.5137 75.5197 2.56835H77.7602C77.8831 2.22682 78.0334 2.00824 78.1973 1.89895C78.6072 1.92627 78.9487 2.21316 79.2356 2.77327C79.0443 2.90988 78.894 3.10114 78.7574 3.33338C78.7438 5.60114 78.6891 7.56835 78.5935 9.22135C78.5252 10.4099 78.4296 11.4208 78.3339 12.2951C78.211 13.0875 78.0744 13.7569 77.9378 14.276C77.8421 14.5629 77.6782 14.7132 77.4596 14.7132C77.1864 14.6858 77.0498 14.5082 77.0361 14.153C76.7082 13.6886 76.2301 13.3334 75.6017 13.1148C75.6973 13.0602 75.9022 13.0328 76.2301 13.0328C76.6263 13.0875 76.9405 13.1694 77.1591 13.3061C77.364 12.7596 77.5279 11.5711 77.6782 9.71316C77.8011 8.08747 77.8694 5.94267 77.8831 3.27873H75.2875C75.1372 3.74321 74.9733 4.19403 74.7684 4.60387C74.3449 5.45086 73.9077 6.02463 73.4705 6.32518C74.1946 4.45359 74.7274 2.36343 75.0689 0.0546875H75.1099ZM74.6864 6.44813C75.0826 6.74868 75.5197 7.25414 75.9979 7.96452C76.3257 8.48365 76.5033 8.98911 76.5306 9.46726C76.5306 9.89075 76.4077 10.1367 76.1481 10.1913C75.8749 10.1913 75.711 9.97272 75.6563 9.53556C75.4514 8.52463 75.1235 7.50004 74.7 6.44813H74.6864Z" fill="#6A6A6A"/>
<path d="M94.1534 5.82072L94.0304 6.01198C93.4293 6.89996 92.9785 7.43275 92.6643 7.61034C93.7026 5.27428 94.5905 2.78794 95.3282 0.124002L96.0113 0.725095C95.902 1.47646 95.6561 2.3781 95.2599 3.45734C95.1643 3.7169 95.0687 3.94914 94.973 4.18138V14.195C94.973 14.6049 94.8364 14.8235 94.5769 14.8508C94.29 14.8508 94.1534 14.6185 94.1534 14.195V5.82072ZM97.2681 6.47646L97.9785 7.10488C97.8965 7.66499 97.7053 8.34805 97.3911 9.15406C97.1179 9.85078 96.8036 10.4929 96.4348 11.053C95.9703 11.7087 95.6151 12.0912 95.3692 12.2415C96.1069 10.4519 96.7353 8.5393 97.2681 6.49012V6.47646ZM97.1998 0.0966797L98.0058 0.574822C97.9512 1.08029 97.8419 1.61307 97.7053 2.17318C97.678 2.30979 97.637 2.43275 97.6097 2.54203H101.244L101.763 1.79067C102.063 2.10488 102.213 2.69231 102.213 3.52564C102.186 4.35897 101.735 5.01471 100.888 5.50652C101.216 4.74149 101.38 3.99012 101.38 3.23876H97.3638C97.2408 3.56662 97.1042 3.86717 96.9676 4.15406C96.5578 4.90542 96.1479 5.41089 95.7381 5.67045C96.3938 4.00378 96.872 2.14586 97.1862 0.0966797H97.1998ZM99.5086 14.0038C99.5086 14.5366 99.3446 14.7961 99.0031 14.7961C98.7572 14.7961 98.6206 14.6185 98.5659 14.3043C98.2927 13.7989 97.8419 13.4983 97.2271 13.4164C97.3091 13.3344 97.555 13.2934 97.9375 13.2934C98.2654 13.3207 98.5113 13.3617 98.6889 13.4437V5.27428C98.6889 4.64586 98.5386 4.24969 98.2517 4.07209C98.32 4.01744 98.4157 3.99012 98.5386 3.99012C98.8118 3.99012 99.0304 4.05843 99.208 4.19504C99.3993 4.34531 99.5086 4.75515 99.5086 5.43821V14.0038ZM100.26 6.7087C100.656 7.1322 101.093 7.85624 101.571 8.86717C101.899 9.61854 102.077 10.3289 102.104 11.012C102.104 11.4355 101.981 11.6814 101.722 11.736C101.462 11.736 101.285 11.5174 101.23 11.0803C101.025 9.65952 100.697 8.19777 100.274 6.72236L100.26 6.7087Z" fill="#6A6A6A"/>
<path d="M117.869 12.5271C117.869 13.8113 117.377 14.6309 116.394 14.9998C116.844 14.4943 117.063 14.0162 117.063 13.579C117.063 13.4151 116.967 13.2922 116.762 13.2238C116.339 13.1009 116.12 12.7594 116.12 12.1856C116.12 11.8167 116.202 11.5435 116.38 11.3386C116.53 11.12 116.735 10.9971 116.981 10.9971C117.582 10.9971 117.883 11.5025 117.883 12.5135L117.869 12.5271Z" fill="#6A6A6A"/>
<path d="M132.828 4.72678H134.385V2.04918L133.634 2.10383C133.142 2.10383 132.869 2.04918 132.801 1.95355C134.099 1.44809 135.328 0.874317 136.476 0.23224L136.407 1.42076C136.161 1.63934 135.765 1.80328 135.246 1.91257V4.74044H135.806L136.284 3.92076C136.448 4.07104 136.53 4.34426 136.544 4.74044C136.544 5.20492 136.339 5.43716 135.943 5.43716H135.26V6.68033C135.26 6.68033 135.287 6.69399 135.301 6.69399C135.533 6.78962 135.752 6.96721 135.957 7.22678C136.23 7.56831 136.394 8.01913 136.435 8.57924C136.435 8.98907 136.312 9.20765 136.052 9.23497C135.861 9.23497 135.724 9.04372 135.656 8.6612C135.615 8.29235 135.547 7.95082 135.451 7.63661C135.396 7.45902 135.328 7.29508 135.273 7.14481V14.194C135.273 14.5902 135.137 14.7951 134.877 14.8361C134.59 14.8087 134.44 14.6038 134.426 14.194V8.08743C134.331 8.44262 134.222 8.79781 134.099 9.16667C133.634 10.4372 133.211 11.2295 132.855 11.5574C133.457 9.63115 133.866 7.58197 134.099 5.4235H133.088L132.869 4.72678H132.828ZM136.763 11.2568C136.872 11.4208 136.94 11.8579 136.954 12.5956C136.954 12.9372 136.926 13.1967 136.885 13.3607C136.844 13.5109 136.79 13.6339 136.722 13.7295C136.653 13.8525 136.571 13.9617 136.476 14.0437C136.366 14.1393 136.257 14.194 136.12 14.194C135.875 14.194 135.738 14.0301 135.724 13.7158C135.724 13.4836 135.847 13.2514 136.093 13.0191C136.407 12.6093 136.626 12.0219 136.763 11.2568ZM138.88 4.46721H137.104L136.885 3.74317H140.26C140.642 2.9918 140.984 2.18579 141.257 1.35246L141.94 1.95355C141.885 2.17213 141.749 2.43169 141.544 2.73224C141.353 3.00546 141.148 3.25137 140.916 3.46995C140.779 3.57923 140.656 3.6612 140.547 3.74317H141.175L141.53 3.15574C141.694 3.27869 141.776 3.49727 141.79 3.81148C141.763 4.23497 141.558 4.45355 141.175 4.46721H139.741V5.28689H141.722L142.2 4.46721C142.364 4.61749 142.446 4.89071 142.459 5.28689C142.459 5.75137 142.254 5.98361 141.858 5.98361H136.681L136.462 5.28689H138.921V4.46721H138.88ZM140.806 9.72678V8.87978H136.681L136.462 8.18306H140.806V7.33607H137.049L136.817 6.65301H140.697C140.806 6.4071 140.916 6.24317 141.038 6.1612C141.421 6.1612 141.735 6.4071 142.008 6.88525C141.817 7.03552 141.694 7.19945 141.612 7.36339V8.19672H141.776L142.254 7.37705C142.418 7.52732 142.5 7.80055 142.514 8.19672C142.514 8.6612 142.309 8.89344 141.913 8.89344H141.626V10.3005C141.626 10.7104 141.489 10.929 141.23 10.9563C140.984 10.9563 140.847 10.7787 140.834 10.4508H137.186L136.967 9.7541H140.834L140.806 9.72678ZM141.749 1.03825C141.298 1.18852 140.574 1.31148 139.563 1.39344C138.948 1.44809 138.306 1.47541 137.637 1.47541C137.159 1.47541 136.872 1.42077 136.804 1.32514C138.593 0.942623 140.273 0.505464 141.817 0L141.763 1.03825H141.749ZM136.872 1.5847C137.104 1.72131 137.35 1.95355 137.637 2.26776C137.842 2.5 137.937 2.73224 137.951 2.95082C137.951 3.31967 137.842 3.52459 137.61 3.57923C137.377 3.57923 137.227 3.38798 137.172 3.00546C137.104 2.54098 137.008 2.06284 136.872 1.5847ZM139.713 14.5765C138.88 14.5765 138.347 14.5355 138.115 14.4536C137.951 14.3852 137.842 14.2486 137.76 14.0437C137.705 13.8934 137.678 13.6202 137.678 13.224V12.2131C137.678 11.5847 137.541 11.1885 137.254 11.0109C137.309 10.9563 137.391 10.929 137.528 10.929C137.855 10.929 138.074 10.9973 138.211 11.1339C138.402 11.2842 138.497 11.6803 138.497 12.3361V12.9235C138.497 13.2923 138.552 13.4973 138.661 13.5792C138.894 13.6339 139.235 13.6612 139.7 13.6612C140.287 13.6339 140.574 13.5519 140.574 13.4426C140.656 12.7732 140.806 12.3224 141.025 12.0902C140.97 12.3224 140.943 12.541 140.943 12.7459C140.957 13.0601 141.038 13.2514 141.189 13.347C141.394 13.347 141.517 13.5109 141.53 13.7978C141.53 14.112 141.421 14.2896 141.202 14.3579C140.929 14.4809 140.437 14.5628 139.713 14.5765ZM138.716 1.57104C138.935 1.70765 139.167 1.93989 139.426 2.26776C139.604 2.5 139.7 2.73224 139.713 2.95082C139.713 3.31967 139.604 3.52459 139.372 3.57923C139.14 3.57923 138.989 3.38798 138.935 3.00546C138.88 2.54098 138.812 2.06284 138.702 1.57104H138.716ZM138.812 10.6421C139.208 10.7923 139.522 10.9973 139.768 11.2705C139.987 11.5027 140.11 11.776 140.137 12.0628C140.137 12.5273 140.014 12.7732 139.754 12.7869C139.522 12.7869 139.372 12.582 139.29 12.1858C139.263 11.9536 139.208 11.7486 139.153 11.5847C139.058 11.2295 138.935 10.929 138.798 10.6557L138.812 10.6421ZM140.834 11.0519C141.325 11.2432 141.722 11.5164 142.008 11.8852C142.282 12.1995 142.432 12.541 142.473 12.9372C142.473 13.4016 142.35 13.6475 142.09 13.6612C141.858 13.6612 141.708 13.4563 141.626 13.0601C141.558 12.7596 141.489 12.5 141.407 12.2678C141.243 11.8169 141.052 11.4071 140.834 11.0656V11.0519Z" fill="#6A6A6A"/>
<path d="M156.011 4.72678H157.568V2.04918L156.817 2.10383C156.325 2.10383 156.052 2.04918 155.984 1.95355C157.281 1.44809 158.511 0.874317 159.659 0.23224L159.59 1.42076C159.344 1.63934 158.948 1.80328 158.429 1.91257V4.74044H158.989L159.467 3.92076C159.631 4.07104 159.713 4.34426 159.727 4.74044C159.727 5.20492 159.522 5.43716 159.126 5.43716H158.443V6.68033C158.443 6.68033 158.47 6.69399 158.484 6.69399C158.716 6.78962 158.934 6.96721 159.139 7.22678C159.413 7.56831 159.577 8.01913 159.618 8.57924C159.618 8.98907 159.495 9.20765 159.235 9.23497C159.044 9.23497 158.907 9.04372 158.839 8.6612C158.798 8.29235 158.73 7.95082 158.634 7.63661C158.579 7.45902 158.511 7.29508 158.456 7.14481V14.194C158.456 14.5902 158.32 14.7951 158.06 14.8361C157.773 14.8087 157.623 14.6038 157.609 14.194V8.08743C157.514 8.44262 157.404 8.79781 157.281 9.16667C156.817 10.4372 156.393 11.2295 156.038 11.5574C156.639 9.63115 157.049 7.58197 157.281 5.4235H156.271L156.052 4.72678H156.011ZM159.945 11.2568C160.055 11.4208 160.123 11.8579 160.137 12.5956C160.137 12.9372 160.109 13.1967 160.068 13.3607C160.027 13.5109 159.973 13.6339 159.904 13.7295C159.836 13.8525 159.754 13.9617 159.659 14.0437C159.549 14.1393 159.44 14.194 159.303 14.194C159.057 14.194 158.921 14.0301 158.907 13.7158C158.907 13.4836 159.03 13.2514 159.276 13.0191C159.59 12.6093 159.809 12.0219 159.945 11.2568ZM162.063 4.46721H160.287L160.068 3.74317H163.443C163.825 2.9918 164.167 2.18579 164.44 1.35246L165.123 1.95355C165.068 2.17213 164.932 2.43169 164.727 2.73224C164.536 3.00546 164.331 3.25137 164.098 3.46995C163.962 3.57923 163.839 3.6612 163.73 3.74317H164.358L164.713 3.15574C164.877 3.27869 164.959 3.49727 164.973 3.81148C164.945 4.23497 164.74 4.45355 164.358 4.46721H162.924V5.28689H164.904L165.383 4.46721C165.546 4.61749 165.628 4.89071 165.642 5.28689C165.642 5.75137 165.437 5.98361 165.041 5.98361H159.863L159.645 5.28689H162.104V4.46721H162.063ZM163.989 9.72678V8.87978H159.863L159.645 8.18306H163.989V7.33607H160.232L160 6.65301H163.88C163.989 6.4071 164.098 6.24317 164.221 6.1612C164.604 6.1612 164.918 6.4071 165.191 6.88525C165 7.03552 164.877 7.19945 164.795 7.36339V8.19672H164.959L165.437 7.37705C165.601 7.52732 165.683 7.80055 165.697 8.19672C165.697 8.6612 165.492 8.89344 165.096 8.89344H164.809V10.3005C164.809 10.7104 164.672 10.929 164.413 10.9563C164.167 10.9563 164.03 10.7787 164.016 10.4508H160.369L160.15 9.7541H164.016L163.989 9.72678ZM164.932 1.03825C164.481 1.18852 163.757 1.31148 162.746 1.39344C162.131 1.44809 161.489 1.47541 160.82 1.47541C160.342 1.47541 160.055 1.42077 159.986 1.32514C161.776 0.942623 163.456 0.505464 165 0L164.945 1.03825H164.932ZM160.055 1.5847C160.287 1.72131 160.533 1.95355 160.82 2.26776C161.025 2.5 161.12 2.73224 161.134 2.95082C161.134 3.31967 161.025 3.52459 160.792 3.57923C160.56 3.57923 160.41 3.38798 160.355 3.00546C160.287 2.54098 160.191 2.06284 160.055 1.5847ZM162.896 14.5765C162.063 14.5765 161.53 14.5355 161.298 14.4536C161.134 14.3852 161.025 14.2486 160.943 14.0437C160.888 13.8934 160.861 13.6202 160.861 13.224V12.2131C160.861 11.5847 160.724 11.1885 160.437 11.0109C160.492 10.9563 160.574 10.929 160.71 10.929C161.038 10.929 161.257 10.9973 161.393 11.1339C161.585 11.2842 161.68 11.6803 161.68 12.3361V12.9235C161.68 13.2923 161.735 13.4973 161.844 13.5792C162.077 13.6339 162.418 13.6612 162.883 13.6612C163.47 13.6339 163.757 13.5519 163.757 13.4426C163.839 12.7732 163.989 12.3224 164.208 12.0902C164.153 12.3224 164.126 12.541 164.126 12.7459C164.139 13.0601 164.221 13.2514 164.372 13.347C164.577 13.347 164.699 13.5109 164.713 13.7978C164.713 14.112 164.604 14.2896 164.385 14.3579C164.112 14.4809 163.62 14.5628 162.896 14.5765ZM161.913 1.57104C162.131 1.70765 162.363 1.93989 162.623 2.26776C162.801 2.5 162.896 2.73224 162.91 2.95082C162.91 3.31967 162.801 3.52459 162.568 3.57923C162.336 3.57923 162.186 3.38798 162.131 3.00546C162.077 2.54098 162.008 2.06284 161.899 1.57104H161.913ZM162.008 10.6421C162.404 10.7923 162.719 10.9973 162.965 11.2705C163.183 11.5027 163.306 11.776 163.333 12.0628C163.333 12.5273 163.21 12.7732 162.951 12.7869C162.719 12.7869 162.568 12.582 162.486 12.1858C162.459 11.9536 162.404 11.7486 162.35 11.5847C162.254 11.2295 162.131 10.929 161.995 10.6557L162.008 10.6421ZM164.03 11.0519C164.522 11.2432 164.918 11.5164 165.205 11.8852C165.478 12.1995 165.628 12.541 165.669 12.9372C165.669 13.4016 165.546 13.6475 165.287 13.6612C165.055 13.6612 164.904 13.4563 164.822 13.0601C164.754 12.7596 164.686 12.5 164.604 12.2678C164.44 11.8169 164.249 11.4071 164.03 11.0656V11.0519Z" fill="#6A6A6A"/>
<path d="M179.235 1.12127H183.948L184.426 0.301598C184.59 0.451871 184.672 0.725095 184.686 1.12127C184.686 1.58575 184.481 1.81799 184.085 1.81799H182.2C181.954 2.47373 181.653 3.14313 181.312 3.79887C180.943 4.49559 180.615 5.02837 180.314 5.38356C181.325 5.26061 182.35 5.09668 183.374 4.89176C183.224 4.19504 183.033 3.48466 182.787 2.76061C183.156 3.07482 183.566 3.60761 184.017 4.35897C184.317 4.91908 184.495 5.46553 184.522 5.971C184.522 6.42182 184.385 6.66772 184.112 6.72236C183.825 6.72236 183.648 6.49012 183.579 6.02564C183.538 5.75242 183.484 5.46553 183.415 5.19231C183.238 5.32892 183.019 5.47919 182.746 5.64313C182.227 5.91635 181.68 6.12127 181.134 6.27154C180.615 6.42182 180.137 6.51744 179.7 6.55843L179.426 5.52018L179.891 5.45187C180.41 4.2087 180.847 2.99285 181.189 1.83165H179.426L179.208 1.13493L179.235 1.12127ZM179.522 8.94914H181.462V7.89723C181.462 7.25515 181.325 6.85897 181.038 6.68138C181.093 6.62673 181.189 6.59941 181.325 6.59941C181.653 6.59941 181.885 6.66772 182.022 6.80433C182.213 6.96826 182.295 7.36444 182.295 8.02018V8.94914H183.743L184.221 8.12947C184.385 8.27974 184.467 8.55296 184.481 8.94914C184.481 9.41362 184.276 9.64586 183.88 9.64586H182.323V12.3781C183.074 12.2142 183.825 12.0092 184.59 11.7907C184.467 12.0639 184.044 12.4191 183.347 12.8562C182.719 13.2114 182.077 13.4983 181.421 13.6896C180.779 13.8945 180.205 14.0174 179.686 14.0721L179.413 13.0338C180.096 12.9109 180.779 12.7606 181.476 12.5967V9.64586H179.754L179.536 8.94914H179.522ZM186.325 10.0284C186.325 10.4245 186.189 10.6295 185.915 10.6568C185.629 10.6568 185.478 10.4382 185.478 10.0284V3.43001C185.478 2.78794 185.342 2.39176 185.055 2.21417C185.109 2.15952 185.205 2.1322 185.342 2.1322C185.683 2.1322 185.915 2.2005 186.038 2.33712C186.23 2.50105 186.312 2.91089 186.312 3.56662V10.0147L186.325 10.0284ZM187.5 0.0966797C187.773 0.0966797 187.992 0.164986 188.183 0.301598C188.388 0.465532 188.484 0.889029 188.497 1.59941V13.6213C188.497 14.3726 188.347 14.7415 188.033 14.7551C187.787 14.7551 187.65 14.5502 187.596 14.1541C187.268 13.5256 186.776 13.1568 186.107 13.0338C186.189 12.9655 186.38 12.9382 186.68 12.9382C187.049 12.9382 187.364 12.9929 187.65 13.0885V1.40816C187.65 0.752417 187.5 0.342581 187.213 0.178647C187.268 0.124002 187.364 0.0966797 187.5 0.0966797Z" fill="#6A6A6A"/>
<path d="M203.785 5.87436L203.689 6.05196C203.101 6.93993 202.651 7.48638 202.35 7.66398C203.334 5.30059 204.181 2.75961 204.891 0.0546875L205.615 0.696764C205.506 1.44813 205.26 2.37709 204.877 3.45633C204.795 3.71589 204.7 3.94813 204.618 4.18037V14.1804C204.618 14.5902 204.481 14.8088 204.222 14.8361C203.935 14.8361 203.798 14.6039 203.798 14.1804V5.87436H203.785ZM209.987 4.72682L210.779 5.09567C210.765 5.929 210.656 6.96726 210.479 8.22409C210.287 9.39895 210.041 10.4235 209.727 11.3252C209.399 12.1722 209.126 12.7869 208.907 13.1421H211.366L211.845 12.3224C212.009 12.4591 212.091 12.7323 212.104 13.1421C212.104 13.6066 211.899 13.8388 211.503 13.8388H205.205L204.987 13.1421H208.771C209.331 10.4509 209.754 7.63665 210.014 4.72682H209.987ZM209.071 1.39349V3.41534H211.203L211.681 2.59567C211.845 2.74594 211.927 3.01917 211.94 3.41534C211.94 3.87982 211.735 4.11206 211.339 4.11206H205.601L205.383 3.41534H208.238V1.39349C208.238 0.76507 208.088 0.368895 207.787 0.1913C207.842 0.136655 207.938 0.109332 208.06 0.109332C208.361 0.109332 208.593 0.177638 208.744 0.300589C208.948 0.450862 209.058 0.806054 209.071 1.37982V1.39349ZM207.856 11.7077C207.842 12.0902 207.692 12.2815 207.405 12.2815C207.173 12.2815 207.022 12.0492 206.954 11.6257C206.804 9.57655 206.694 8.19676 206.612 7.47272C206.53 6.68037 206.435 5.87436 206.326 5.08201C206.749 6.12026 207.104 7.29513 207.391 8.63392C207.569 9.42627 207.692 10.123 207.774 10.7241C207.828 11.052 207.856 11.3798 207.856 11.7214V11.7077Z" fill="#6A6A6A"/>
<path d="M225.943 13.0875V2.24048C226.503 2.24048 226.79 2.39075 226.79 2.6913H227.09C227.336 1.776 227.514 0.915343 227.623 0.109332L228.416 0.587474C228.416 0.806054 228.375 1.03829 228.293 1.31152C228.183 1.66671 228.033 1.96726 227.855 2.22682C227.705 2.4454 227.555 2.59567 227.418 2.70496H228.538C228.648 2.40441 228.771 2.1995 228.921 2.07655C229.345 2.07655 229.7 2.36343 230 2.92354C229.795 3.10114 229.659 3.29239 229.563 3.49731V12.8416C229.563 13.2651 229.426 13.4836 229.14 13.4973C228.839 13.4973 228.675 13.2787 228.675 12.8552H226.79V13.0738C226.79 13.4563 226.653 13.6476 226.366 13.6612C226.079 13.6612 225.943 13.47 225.943 13.0875ZM226.79 7.21316H228.675V3.3607H226.79V7.21316ZM226.79 12.1449H228.675V7.92354H226.79V12.1449ZM231.23 0.0546875L232.036 0.53283C231.967 1.1066 231.858 1.72135 231.694 2.34977C231.681 2.43174 231.653 2.5137 231.64 2.56835H233.88C234.003 2.22682 234.153 2.00824 234.317 1.89895C234.727 1.92627 235.069 2.21316 235.355 2.77327C235.164 2.90988 235.014 3.10114 234.877 3.33338C234.864 5.60114 234.809 7.56835 234.713 9.22135C234.645 10.4099 234.549 11.4208 234.454 12.2951C234.331 13.0875 234.194 13.7569 234.058 14.276C233.962 14.5629 233.798 14.7132 233.579 14.7132C233.306 14.6858 233.17 14.5082 233.156 14.153C232.828 13.6886 232.35 13.3334 231.722 13.1148C231.817 13.0602 232.022 13.0328 232.35 13.0328C232.746 13.0875 233.06 13.1694 233.279 13.3061C233.484 12.7596 233.648 11.5711 233.798 9.71316C233.921 8.08747 233.989 5.94267 234.003 3.27873H231.407C231.257 3.74321 231.093 4.19403 230.888 4.60387C230.465 5.45086 230.028 6.02463 229.59 6.32518C230.314 4.45359 230.847 2.36343 231.189 0.0546875H231.23ZM230.806 6.44813C231.202 6.74868 231.64 7.25414 232.118 7.96452C232.446 8.48365 232.623 8.98911 232.651 9.46726C232.651 9.89075 232.528 10.1367 232.268 10.1913C231.995 10.1913 231.831 9.97272 231.776 9.53556C231.571 8.52463 231.243 7.50004 230.82 6.44813H230.806Z" fill="#6A6A6A"/>
<path d="M254.057 1.32418V2.06189H257.363L257.91 1.22855C258.224 1.55642 258.388 2.17118 258.388 3.04549C258.361 3.90615 257.924 4.58921 257.077 5.09467C257.363 4.30232 257.514 3.52363 257.514 2.75861H250.123C250.096 3.26407 250.027 3.70123 249.918 4.07008C249.768 4.53456 249.563 4.9444 249.303 5.27227L248.853 4.07008C249.303 3.6056 249.631 2.90888 249.863 1.97992C249.918 1.74768 249.959 1.50178 250 1.25588C250.068 1.3515 250.123 1.61107 250.15 2.04823H253.224V1.31052C253.224 0.682105 253.074 0.28593 252.773 0.108334C252.828 0.0536896 252.924 0.0263672 253.047 0.0263672C253.347 0.0263672 253.579 0.0946732 253.73 0.217624C253.934 0.367897 254.044 0.723089 254.057 1.29686V1.32418ZM248.989 6.62473H254.467V5.1903C254.467 4.53456 254.317 4.12473 254.03 3.96079C254.085 3.90615 254.18 3.87883 254.317 3.87883C254.59 3.87883 254.822 3.94713 255 4.08374C255.205 4.24768 255.301 4.67118 255.314 5.38156V6.62473H257.541L258.019 5.80506C258.183 5.95533 258.265 6.22855 258.279 6.62473C258.279 7.08921 258.074 7.32145 257.678 7.32145H255.328V13.8515C255.328 14.4663 255.15 14.7805 254.809 14.7805C254.563 14.7805 254.413 14.5755 254.358 14.2067C254.085 13.5919 253.661 13.2367 253.047 13.1411C253.128 13.0592 253.374 13.0182 253.757 13.0182C254.057 13.0455 254.303 13.1001 254.467 13.1958V7.33511H249.221L248.989 6.63839V6.62473ZM250.601 8.52363C251.175 8.75587 251.639 9.09741 251.981 9.56189C252.281 9.9444 252.459 10.3816 252.514 10.8597C252.514 11.3652 252.377 11.6111 252.104 11.6247C251.872 11.6247 251.708 11.4061 251.626 10.9827C251.557 10.6138 251.462 10.2859 251.339 9.98538C251.134 9.43894 250.888 8.94713 250.615 8.50997L250.601 8.52363Z" fill="#6A6A6A"/>
<path d="M271.954 2.45813H273.375V1.39255C273.375 0.764136 273.224 0.367961 272.937 0.190366C272.992 0.135721 273.074 0.108398 273.211 0.108398C273.511 0.108398 273.743 0.176704 273.894 0.299655C274.099 0.449929 274.208 0.80512 274.222 1.37889V2.44446H274.85L275.328 1.65211C275.492 1.78873 275.574 2.06195 275.588 2.44446C275.588 2.90895 275.383 3.14119 274.987 3.14119H272.186L271.968 2.44446L271.954 2.45813ZM272.254 14.0565V8.72862C272.801 8.72862 273.074 8.86523 273.074 9.13845V9.31605H274.181C274.29 9.02916 274.413 8.82425 274.549 8.71496C274.959 8.71496 275.301 9.00184 275.588 9.54829C275.396 9.71222 275.246 9.90348 275.164 10.1084V13.7696C275.164 14.1931 275.028 14.4117 274.754 14.4253C274.454 14.4253 274.304 14.1931 274.304 13.7559L273.074 13.7423V14.0565C273.074 14.439 272.937 14.6303 272.664 14.6303C272.391 14.6303 272.254 14.439 272.254 14.0701V14.0565ZM274.659 5.3543H272.528L272.309 4.65758H274.536L275.014 4.00184C275.178 4.12479 275.26 4.34337 275.274 4.65758C275.274 5.12206 275.069 5.3543 274.672 5.3543H274.659ZM274.659 7.6084H272.528L272.309 6.91168H274.536L275.014 6.25594C275.178 6.37889 275.26 6.59747 275.274 6.91168C275.274 7.37616 275.069 7.6084 274.672 7.6084H274.659ZM273.074 13.0182H274.304V9.99911H273.074V13.0182ZM276.011 5.47725C275.629 5.8461 275.328 6.05102 275.123 6.13299C275.724 5.05375 276.257 3.87889 276.694 2.63572L277.336 3.20949C277.282 3.44173 277.186 3.7013 277.036 3.98818H278.334C278.443 3.5237 278.525 3.05922 278.607 2.6084L279.331 2.99091C279.304 3.23681 279.208 3.45539 279.071 3.64665C278.976 3.78326 278.88 3.89255 278.784 3.98818H280.574L281.052 3.30512C281.216 3.42807 281.298 3.66031 281.312 3.98818C281.312 4.45266 281.107 4.6849 280.711 4.6849H279.194V5.50457H280.301L280.656 4.91714C280.82 5.04009 280.902 5.25867 280.916 5.57288C280.888 5.98272 280.683 6.2013 280.315 6.21496H279.208V7.00731H280.369L280.724 6.43354C280.888 6.55649 280.97 6.7614 280.984 7.07561C280.957 7.48545 280.752 7.70403 280.383 7.71769H279.222V8.57835H280.752L281.216 7.75867C281.38 7.90895 281.476 8.18217 281.489 8.57835C281.489 9.04283 281.284 9.27507 280.888 9.27507H276.899C276.872 9.56195 276.735 9.71222 276.489 9.73955C276.202 9.73955 276.066 9.52097 276.066 9.09747V5.47725H276.011ZM276.066 10.6412L275.847 9.94447H279.741C279.864 9.6849 280.028 9.50731 280.205 9.41168C280.478 9.47998 280.711 9.71222 280.916 10.0811C281.039 10.2723 281.107 10.4499 281.121 10.5865C280.902 10.6275 280.711 10.7505 280.533 10.9691C280.192 11.5292 279.809 12.0346 279.399 12.4991C279.331 12.5811 279.276 12.6494 279.235 12.6904C279.959 13.0456 280.765 13.3051 281.681 13.4827C281.503 13.6876 281.325 13.9745 281.161 14.3434C281.161 14.4117 281.093 14.439 280.97 14.439C280.834 14.439 280.711 14.4253 280.615 14.3844C280.137 14.2614 279.631 14.0155 279.14 13.6876C278.921 13.5647 278.73 13.4281 278.566 13.3051C278.32 13.5237 278.06 13.715 277.787 13.9062C276.872 14.4253 275.984 14.7259 275.137 14.7805C275.861 14.439 276.544 14.0292 277.159 13.5647C277.473 13.3051 277.76 13.0592 278.033 12.7997C277.855 12.6084 277.692 12.4171 277.555 12.2122C277.186 11.6931 276.94 11.1603 276.845 10.6139H276.066V10.6412ZM275.615 1.25594H276.995C276.968 0.709491 276.817 0.3543 276.53 0.190366C276.599 0.135721 276.694 0.108398 276.845 0.108398C277.145 0.108398 277.364 0.176704 277.528 0.299655C277.719 0.46359 277.815 0.777797 277.842 1.25594H279.194C279.167 0.709491 279.017 0.3543 278.743 0.190366C278.798 0.135721 278.907 0.108398 279.044 0.108398C279.345 0.108398 279.563 0.176704 279.727 0.299655C279.918 0.46359 280.014 0.777797 280.041 1.25594H280.834L281.312 0.436267C281.476 0.586541 281.558 0.859765 281.571 1.25594C281.571 1.72042 281.366 1.95266 280.97 1.95266H280.055V2.30785C280.055 2.70403 279.918 2.90895 279.645 2.93627C279.358 2.93627 279.208 2.71769 279.208 2.30785V1.95266H277.855V2.33517C277.855 2.73135 277.719 2.93627 277.459 2.96359C277.159 2.96359 277.008 2.74501 277.008 2.33517V1.95266H275.847L275.629 1.25594H275.615ZM276.858 5.50457H278.347V4.6849H276.858V5.50457ZM276.858 7.00731H278.347V6.21496H276.858V7.00731ZM278.347 8.57835V7.71769H276.858V8.57835H278.347ZM277.036 10.6412C277.268 11.01 277.514 11.3242 277.787 11.5975C278.006 11.857 278.252 12.0756 278.539 12.2669L278.689 12.1166C279.099 11.6111 279.427 11.1057 279.672 10.6275H277.049L277.036 10.6412Z" fill="#6A6A6A"/>
</g>
<defs>
<clipPath id="clip0_774_15051">
<rect width="281.68" height="15" fill="white"/>
</clipPath>
</defs>
</svg>
